<?xml version="1.0" encoding="utf-8"?>
<!-- Generator: Adobe Illustrator 24.0.1, SVG Export Plug-In . SVG Version: 6.00 Build 0)  -->
<svg version="1.1" id="Layer_1" xmlns="http://www.w3.org/2000/svg" xmlns:xlink="http://www.w3.org/1999/xlink" x="0px" y="0px"
	 viewBox="0 0 30 30" style="enable-background:new 0 0 30 30;" xml:space="preserve">
<style type="text/css">
	.st0{fill:#333333;stroke:#FFFFFF;stroke-miterlimit:10;}
</style>
<g>
	<path class="st0" d="M28.3,23.7c-0.1-0.8-0.5-1.5-1.1-2c-0.9-0.7-2.3-2.1-2.5-4c-0.3-2.8,0.5-12.8-7.7-14h0C16.8,3.3,16.9,3,17,2.9
		v0v0l0,0c0.1-0.2,0.1-0.5,0.1-0.7c0-1.2-1-2.1-2.1-2.1c-1.2,0-2.1,1-2.1,2.1c0,0.3,0.1,0.5,0.1,0.8C13,3,13.1,3.3,13,3.7
		c-8.1,1.2-7.3,11.2-7.7,14c-0.2,1.9-1.7,3.3-2.5,4c-0.6,0.5-1.1,1.2-1.1,2c-0.2,2.1,2.2,1.9,2.2,1.9h11h0.2h11
		C26.1,25.6,28.5,25.8,28.3,23.7z"/>
	<g>
		<path class="st0" d="M15,30c1.8,0,3.3-1.3,3.6-3.1h-7.2C11.7,28.7,13.2,30,15,30z"/>
	</g>
</g>
</svg>
