<?xml version="1.0" encoding="utf-8"?>
<!-- Generator: Adobe Illustrator 24.0.1, SVG Export Plug-In . SVG Version: 6.00 Build 0)  -->
<svg version="1.1" id="Layer_1" xmlns="http://www.w3.org/2000/svg" xmlns:xlink="http://www.w3.org/1999/xlink" x="0px" y="0px"
	 viewBox="0 0 30 30" style="enable-background:new 0 0 30 30;" xml:space="preserve">
<style type="text/css">
	.st0{fill:#333333;stroke:#FFFFFF;stroke-miterlimit:10;}
	.st1{fill:#E30613;stroke:#FFFFFF;stroke-miterlimit:10;}
</style>
<g>
	<g>
		<path class="st0" d="M25.4,24.11c-0.07-0.75-0.47-1.44-1.07-1.9c-0.81-0.64-2.16-1.96-2.37-3.78c-0.31-2.62,0.43-12.02-7.26-13.12
			l-0.02,0c-0.05-0.34,0.05-0.67,0.07-0.74c0,0,0-0.01,0-0.01c0,0,0-0.01,0-0.01h0c0.08-0.21,0.12-0.44,0.12-0.68
			c0-1.11-0.9-2.01-2.01-2.01c-1.11,0-2.01,0.9-2.01,2.01c0,0.25,0.05,0.49,0.13,0.71C11,4.69,11.09,5,11.04,5.32
			C3.44,6.48,4.17,15.82,3.86,18.43c-0.21,1.82-1.56,3.13-2.37,3.78c-0.59,0.47-0.99,1.15-1.07,1.9c-0.19,1.98,2.1,1.77,2.1,1.77
			H12.8h0.22H23.3C23.3,25.88,25.59,26.09,25.4,24.11z"/>
		<g>
			<path class="st0" d="M12.91,30c1.7,0,3.11-1.24,3.38-2.87H9.53C9.8,28.76,11.21,30,12.91,30z"/>
		</g>
	</g>
	<ellipse transform="matrix(0.925 -0.38 0.38 0.925 -0.9808 9.0975)" class="st1" cx="22.56" cy="7.03" rx="7.03" ry="7.03"/>
</g>
</svg>
