<?xml version="1.0" encoding="utf-8"?>
<!-- Generator: Adobe Illustrator 24.0.1, SVG Export Plug-In . SVG Version: 6.00 Build 0)  -->
<!DOCTYPE svg PUBLIC "-//W3C//DTD SVG 1.1//EN" "http://www.w3.org/Graphics/SVG/1.1/DTD/svg11.dtd" [
	<!ENTITY ns_extend "http://ns.adobe.com/Extensibility/1.0/">
	<!ENTITY ns_ai "http://ns.adobe.com/AdobeIllustrator/10.0/">
	<!ENTITY ns_graphs "http://ns.adobe.com/Graphs/1.0/">
	<!ENTITY ns_vars "http://ns.adobe.com/Variables/1.0/">
	<!ENTITY ns_imrep "http://ns.adobe.com/ImageReplacement/1.0/">
	<!ENTITY ns_sfw "http://ns.adobe.com/SaveForWeb/1.0/">
	<!ENTITY ns_custom "http://ns.adobe.com/GenericCustomNamespace/1.0/">
	<!ENTITY ns_adobe_xpath "http://ns.adobe.com/XPath/1.0/">
]>
<svg version="1.1" id="Layer_1" xmlns:x="&ns_extend;" xmlns:i="&ns_ai;" xmlns:graph="&ns_graphs;"
	 xmlns="http://www.w3.org/2000/svg" xmlns:xlink="http://www.w3.org/1999/xlink" x="0px" y="0px" viewBox="0 0 400 400"
	 style="enable-background:new 0 0 400 400;" xml:space="preserve">
<metadata>
	<sfw  xmlns="&ns_sfw;">
		<slices></slices>
		<sliceSourceBounds  bottomLeftOrigin="true" height="239.8" width="399.9" x="0.3" y="-325.4"></sliceSourceBounds>
	</sfw>
</metadata>
<g>
	<g>
		<linearGradient id="SVGID_1_" gradientUnits="userSpaceOnUse" x1="0.3335" y1="208.1585" x2="400.2539" y2="208.1585">
			<stop  offset="0" style="stop-color:#FFFFFF"/>
			<stop  offset="1" style="stop-color:#000000"/>
		</linearGradient>
		<path style="opacity:0;fill:url(#SVGID_1_);" d="M200.3,325.3c-65.5,0-131,0-196.6,0.1c-2.9,0-3.5-0.6-3.4-3.4
			c0.1-75.9,0.1-151.8,0-227.7c0-2.9,0.6-3.4,3.4-3.4c131,0.1,262.1,0.1,393.1,0c2.9,0,3.5,0.6,3.4,3.4c-0.1,75.9-0.1,151.8,0,227.7
			c0,2.9-0.6,3.4-3.4,3.4C331.3,325.2,265.8,325.3,200.3,325.3z"/>
		<path style="fill:#36B349;" d="M135.8,120.5c6.6-10.9,16.1-18.6,26.9-24.8c11.2-6.5,23.7-9.5,36.5-10c10.4-0.4,20.7,1.5,30.4,5.5
			c1.4,0.6,3.1,0.2,4.1,1.6c-5.1,5-6.7,11.8-9.6,17.9c-7.2,15-14,30.1-21.1,45.1c-1.6,3.3-2.9,6.7-4.2,10
			c-3.6,4.5-8.3,7.8-11.8,12.4c-5.3,7-8.4,14.9-10.3,23.2c-2.6,11.3-3.2,22.9-2,34.5c0.3,3,0.8,6.1-0.7,9c-2.3,0.4-2.1-1.6-2.1-2.7
			c0-5.7-1.6-11.3-0.8-17.4c-3.7,6.6-6.5,13.3-9.5,19.8c-0.9,1.9-0.9,4-1.1,6.1c-0.1,1.4,0.3,3.2-2,3.6c-2.4-5.7-2.4-5.7-9.1-5.7
			c-1.1,0-2.2,0.1-3.4,0c-3.5-0.2-5.1,1.1-6,4.8c-1.7,7.1-5.1,13.3-12.5,16.3c-8.6,3.5-18.1,1.3-24-5.8c-5.9-7.1-8.9-15.5-10-24.5
			c-1-8.5-1.5-17-0.1-25.5c1.7-10.2,4.7-19.7,12.1-27.5c6.3-6.7,24.2-6.9,30,2.5c1.9,3.1,4,6.1,4.8,9.7c0.4,1.8,1.2,3.3,3,3.7
			c3.9,0.8,7.8,0.7,11.7,0.1c2.9-0.4,2.5-3.1,2.1-5.1c-1.6-7.3-4.2-14.4-8.7-20.3c-5.3-7-11.8-12.7-20.7-15
			c-3.2-0.8-6.5,0.1-9.5-1.4c-1.5-1.7-0.3-3.1,0.4-4.6c4.1-9,8.2-17.9,12.6-26.8c0.4-0.8,0.3-1.6,0.7-2.4
			C133.5,124.9,134.8,122.8,135.8,120.5z"/>
		<path style="fill:#006229;" d="M295.9,128.4c18.3-2.8,36.8,11.6,41.3,26.7c2,6.8,4.8,13.4,1.8,20.6c-0.8,2,1,2.3,2.3,2.7
			c4.4,1.5,9.3,1.4,13.5,3.6c-4.8,9.2-8.9,18.7-13.3,28c-7.8,16.3-14.9,32.9-22.9,49c-0.6,1.2-1.5,2.3-1.3,4.1
			c2.2,0.3,4.4-0.1,6.6,0.2c1.3,0.2,3.3-0.3,3,2.2c-2.9,1.5-6.1,0.7-9.1,0.8c-5.2,0.1-10.4,0.1-15.6,0c-1.7,0-3.6,0.1-4.4-1.7
			c-0.9-1.9,0.8-3.1,1.9-4.3c5.2-5.5,11.3-10,16.4-15.6c6.2-6.7,10.5-13.9,9.9-23.6c-0.6-9.1-7.8-19.1-18.9-18.6
			c-3.4,0.2-6.8-0.3-10.1,0.4c-7.2,1.6-15.1,10.6-15.8,18c-0.2,2.2,0.4,3.6,2.8,3.6c1.7,0.1,3.4,0,5,0.1c2.6,0.1,3.6-1.1,4.3-3.5
			c2.2-7.3,8.6-10.5,15-7.9c3.3,1.3,5,3.7,5.5,7.3c0.9,7.5-1.9,13.5-7.2,18.4c-6.8,6.4-14,12.5-20.3,19.5c-3.8,4.2-6.3,8.9-6.9,14.5
			c-0.4,3.9,0.4,4.7,4.4,4.7c12.6,0.1,25.2,0,37.9,0.1c1.9,0,4-0.5,5.5,1.3c-0.8,2.1-2.7,1.8-4.2,1.8c-3.8,0.2-7.6,0.1-11.3,0
			c-2.4-0.1-3.8,0.6-4.7,3.1c-2.5,6.8-6.2,13.1-8.9,19.9c-1.9,4.9-2,4.9,3.5,4.9c10.4,0,20.7,0,31.1,0c1.9,0,4-0.4,5.5,1.3
			c-1.1,0.9-2.4,0.8-3.7,0.9c-14.1,0.6-28.2,0.1-42.3,0.2c-1.8-0.5-3.6-0.4-5.4-0.4c-23.1,0-46.2,0-69.4,0c-5.7,0-6.3-0.9-4.3-6.1
			c1.6-3.9,3.1-7.8,5.3-11.4c2.3-1.7,5.2-2.1,7.8-2.7c11.3-2.5,19.2-9.6,25.3-18.7c7-10.4,9.9-22.3,11.3-34.7
			c1.3-11.4,0.3-22.5-1.7-33.7c0.3-4.9,3.3-8.9,5.4-13c7-14,13.1-28.4,19.9-42.5C289.6,141.5,292,134.6,295.9,128.4z"/>
		<path style="fill:#8AC33F;" d="M132.7,126.7c-1.6,6.6-4.9,12.5-7.6,18.6c-2.2,5-4.9,9.8-6.7,14.9c-2.1,2-5.1,1.1-7.6,1.9
			c-14.4,4.5-23.1,14.6-28.5,28.1c-6.5,16.4-6.7,33.5-5.2,50.7c0.2,2.4,0.8,4.7,0.7,7.1c-2,5.9-4.9,11.5-7.6,17.2
			c-6.4,13.1-12.1,26.6-18.6,39.7c-0.4,0.9-0.6,1.9-1.5,2.4C30,300.5,16,287.1,8.4,267.4c-4.3-11.2-5.4-22.7-3-34.9
			c4.2-21.2,15.8-36.5,34.3-46.9c6.1-3.4,12.7-5.6,19.6-6.6c3.4-0.5,4.5-1.4,3.9-5.7c-1.6-11.2,2-21.5,9.1-30.2
			c9.9-12.2,23.1-16.6,38.4-14.8c4.4,0.5,8.9,1.9,12.8,4.5c2.8,1.9,4.8,1.4,5.9-2.1c0.5-1.5,1.5-2.8,2.3-4.2
			C132,126.2,132.4,126.2,132.7,126.7z"/>
		<path style="fill:#013A17;" d="M326.9,265.3c-3.7-2.3-7.9,0-11.8-1.2c5.8-12.4,11.6-24.7,17.3-37.1c6.6-14.5,14-28.6,19.9-43.4
			c0.6-1.4,1.5-1.4,2.6-1.6c17.9,6.4,30.6,18.7,38.3,35.7c4.7,10.4,7.1,21.8,5.4,33.2c-3.8,25.8-17.5,44.5-41.6,55
			c-5.9,2.6-12.2,4.5-18.9,4c-13.2,0-26.3-0.1-39.5-0.1c-5,0-4.8,0.1-2.7-4.4c3.7-8,7.4-16.1,10.6-24.4c0.8-1.9,1.7-1.4,2.8-1.4
			c4.6-0.1,9.3,0,13.9-0.1c1.3,0,2.9,0.6,3.8-0.9C325,274.2,325,269.8,326.9,265.3z"/>
		<path style="fill:#009245;" d="M295.9,128.4c-1.1,5.9-4.3,10.9-6.8,16.3c-6.7,14.5-13.4,29-20.1,43.4c-2.3,5-5.2,9.7-6.9,15
			c-1.8-0.1-1.6-1.7-1.9-2.8c-2.5-9.4-6.5-18.1-12.9-25.6c-10.5-12.3-28.1-17.5-43.6-10.4c-1.7,0.8-3.3,2.3-5.5,1.2
			c-0.3-2.7,1.3-4.8,2.3-7c4.6-10.3,9.7-20.5,14.5-30.7c5.1-10.8,10.1-21.6,15-32.4c0.9-1.9,1.9-2.5,3.7-2.6
			c17.8,8.1,31.1,20.7,39.6,38.3c1.4,2.8,2.5,3.7,5.7,1.9C284.2,130.1,289.6,127.4,295.9,128.4z"/>
		<path style="fill:#36B349;" d="M50,307.3c-0.1-3.4,2.1-5.9,3.5-8.8c7.5-16.4,15.2-32.7,22.8-49.1c0.2-0.4,0.5-0.6,0.8-0.9
			c3.1,6.8,4.8,14.2,8.5,20.8c4.1,7.5,9.2,13.9,17.1,17.8c11.4,5.7,22.7,5.8,34.1,0.2c1.2-0.6,2.7-2.8,4,0.1
			c-0.3,5.7-4.2,10-5.9,15.2c-0.3,1.1-0.9,2-1.3,3.1c-0.7,1.8,0,2.6,1.8,2.8c1.4,0.1,2.8,0.1,4.2,0.1c20.9,0,41.9-1.3,62.6,0.3
			c29.8,2.3,59.5,0.5,89.3,1.6c12.6,0,25.3,0.1,37.9,0.1c1.7,0,3.3,0.2,5,0.3c-3,0.9-6.1,0.4-9.1,0.4c-60.7,0.1-121.4,0.2-182.1,0
			c-24-0.1-47.9-0.2-71.9-0.5C64,310.6,56.8,310.2,50,307.3z"/>
		<path style="fill:#83C554;" d="M132.7,126.7c-0.4,0-0.8-0.1-1.2-0.1c1.5-2,2.2-4.4,4.3-6C135.6,123,134.5,125,132.7,126.7z"/>
		<path style="opacity:0;fill:#FEFEFE;" d="M198.2,165.6c6.7-2.9,13.3-5.5,21-5.4c11.8,0.3,21.1,5.2,28.7,13.6
			c7.5,8.3,11.6,18.4,14.1,29.3c3.2,13.6,3.4,27.4,1.1,41c-2.6,15.2-8.2,29.3-20.6,39.6c-4.6,3.8-9.6,6.8-15.8,7.6
			c-2.5,0.3-4.7,2.4-7.5,1.7c-5,1.4-9.7-0.2-14.1-1.9c-13.7-5.3-21.7-16.1-27.2-29.2c-2.2-5.4-4.4-10.8-4.2-16.8
			c0.1-4.3-0.4-8.6-0.6-12.9c-0.5-9.7,0-19.4,2.1-29c2.2-10,6.1-19.1,12.2-27.4C190.5,171.7,194.5,168.9,198.2,165.6z"/>
		<path style="opacity:0;fill:#FEFEFE;" d="M140.1,286.4c-20.2,12.7-44.7,4.7-55.4-16c-3.6-6.9-7-14-7.7-22c-3-20.1-3.2-40,4.3-59.3
			c4.6-11.7,12.2-21.2,24.1-26.5c4.1-1.8,8.4-2.7,12.9-2.6c9.6-0.3,17.9,2.8,25,9.4c6.9,6.5,11.4,14.2,13.7,23.3
			c0.2,0.8,0.7,1.5,1,2.3c2.3,6.1,0.8,8.4-5.5,8.4c-0.6,0-1.1-0.1-1.7,0c-6.1,0.6-11.4,0.6-12.6-7.6c-0.7-4.9-4.3-8.9-8.9-11
			c-11.7-5.3-22.9-1.8-28.8,10.6c-5.9,12.3-7.4,25.2-6,38.7c0.9,8.8,2.4,17.3,7,25c5,8.2,12.2,12.3,21.7,10.9
			c6.9-1,11.8-5.5,14.4-11.9c1-2.4,2.2-4.7,2-7.6c-0.2-2.5,1.8-3.2,4-3.2c3.6,0,7.3,0.4,10.9,0c3.3-0.3,4.8,0.4,4.1,4
			c-0.2,0.9,0.1,1.9,0.1,2.9c1.5,3-0.4,5.8-1.1,8.4c-2.6,8.9-7.2,16.6-14.5,22.5C142.2,285.9,141.4,286.7,140.1,286.4z"/>
		<path style="fill:#009345;" d="M140.1,286.4c10.7-8.1,15.9-19.4,18.6-32.1c0.7-11.9,7.8-21.4,12.2-32.2c1.5,1.2,0.9,2.8,1,4.1
			c0.4,5.8,0.7,11.6,1.1,17.4c0,0.5,0.5,0.9,0.8,1.4c2.5,5,2.8,10.6,4.9,15.7c5.5,13.8,14.1,24.6,28.3,29.9
			c3.8,1.4,8.2,1.5,12.3,2.3c-1.8,4.2-3.5,8.4-5.3,12.5c-1.8,3.9-1.6,4.3,2.9,4.3c23.3,0,46.5,0,69.8,0c1.6,0,3.4-0.5,4.9,0.5
			c-25.5,0.1-51,0.7-76.4,0c-25.9-0.8-51.8-0.1-77.6-0.5c-1.1,0-2.2,0-3.4,0c-3.4,0.1-3.6-1.1-2.3-4.1
			C134.6,299.3,138.3,293.3,140.1,286.4z"/>
		<path style="opacity:0;fill:#FEFEFE;" d="M326.9,265.3c0,4.4,0,8.9,0,13.3c-10.5,0.1-21,0.3-31.5,0.4c-4.6,0-9.3-0.1-13.9,0.1
			c-2.4,0.1-3.1-0.8-3.2-3.2c-0.4-7,2.1-12.8,6.6-17.9c4.9-5.5,10.2-10.8,16-15.4c4.6-3.7,8.6-8,11.1-13.4c1.7-3.7,1.5-7.9,0.4-11.4
			c-1.6-4.8-10.1-6.2-14-2.7c-2.2,1.9-4.2,4.2-4,7.5c0.2,2.7-1.2,3.4-3.6,3.3c-1.7-0.1-3.4,0-5,0c-6.1,0-7.3-1.5-5.3-7.3
			c2.5-7.3,6.9-13,14.3-16.3c12-5.5,29,1.6,31.9,14.3c2.2,9.8-0.3,19-7.6,26.5c-5.1,5.3-10.3,10.5-15.9,15.3c-2,1.7-3.8,3.6-5.7,7
			C307.7,265.3,317.3,265.3,326.9,265.3z"/>
		<path style="fill:#009444;" d="M245.8,226.5c-0.4,11.9-2.2,23.4-8.8,33.7c-8.4,13.2-27.7,13.5-36.4,0.5c-4.3-6.4-6.6-13.3-7.9-21
			c-1.1-6.1-1.9-12.2-1.2-18.3c1.3-11.4,3.1-22.6,11.2-31.8c8.7-10,26.8-9.9,35,3.7c3.4,5.6,5.6,11.7,6.7,18.2
			C245.1,216.5,246.1,221.4,245.8,226.5z"/>
	</g>
</g>
</svg>
