<?xml version="1.0" encoding="utf-8"?>
<!-- Generator: Adobe Illustrator 24.0.1, SVG Export Plug-In . SVG Version: 6.00 Build 0)  -->
<!DOCTYPE svg PUBLIC "-//W3C//DTD SVG 1.1//EN" "http://www.w3.org/Graphics/SVG/1.1/DTD/svg11.dtd" [
	<!ENTITY ns_extend "http://ns.adobe.com/Extensibility/1.0/">
	<!ENTITY ns_ai "http://ns.adobe.com/AdobeIllustrator/10.0/">
	<!ENTITY ns_graphs "http://ns.adobe.com/Graphs/1.0/">
	<!ENTITY ns_vars "http://ns.adobe.com/Variables/1.0/">
	<!ENTITY ns_imrep "http://ns.adobe.com/ImageReplacement/1.0/">
	<!ENTITY ns_sfw "http://ns.adobe.com/SaveForWeb/1.0/">
	<!ENTITY ns_custom "http://ns.adobe.com/GenericCustomNamespace/1.0/">
	<!ENTITY ns_adobe_xpath "http://ns.adobe.com/XPath/1.0/">
]>
<svg version="1.1" id="Layer_1" xmlns:x="&ns_extend;" xmlns:i="&ns_ai;" xmlns:graph="&ns_graphs;"
	 xmlns="http://www.w3.org/2000/svg" xmlns:xlink="http://www.w3.org/1999/xlink" x="0px" y="0px" viewBox="0 0 400 400"
	 style="enable-background:new 0 0 400 400;" xml:space="preserve">
<style type="text/css">
	.st0{fill:#469600;}
	.st1{fill:#414042;}
	.st2{fill:#006482;}
	.st3{opacity:0.2;fill:#FFFFFF;}
	.st4{fill:#E1E1E1;}
	.st5{fill:#B4B4B4;}
	.st6{fill:#78B400;}
</style>
<metadata>
	<sfw  xmlns="&ns_sfw;">
		<slices></slices>
		<sliceSourceBounds  bottomLeftOrigin="true" height="400" width="321" x="39.9" y="-400.2"></sliceSourceBounds>
	</sfw>
</metadata>
<g>
	<path class="st0" d="M180.2,400.2c-52.1-63.7-76.9-123.7-71.7-173.5c4-38.1,23.9-61.5,39.9-74.4l8.8,11
		c-13.9,11.2-31.3,31.6-34.7,64.9c-4.8,46,18.9,102.4,68.6,163.2L180.2,400.2z"/>
	<g>
		<polygon class="st1" points="151.9,170.7 156.9,166.6 161.3,172.1 166,168.4 161.5,162.9 166.5,158.9 170.9,164.4 211.7,131.3 
			190.6,105.2 149.8,138.3 154.2,143.8 149.3,147.8 144.8,142.3 140.2,146.1 144.7,151.6 139.7,155.6 135.3,150.1 130.5,154 
			151.6,180.1 156.4,176.2 		"/>
		<path class="st2" d="M308.3,123.1L218.6,12.4l-52.2,42.3c8.9,11,6.7,27.5-4.9,36.8l-2.1,1.7c-12.4,10-14.7,27.7-5.2,39.5l23,28.4
			c9.6,11.8,27.3,13.1,39.7,3.1l2-1.7c11.6-9.4,28.2-8.1,37.1,2.9L308.3,123.1z"/>
		
			<rect x="206.9" y="16.6" transform="matrix(0.7768 -0.6297 0.6297 0.7768 -2.0079 169.9109)" class="st3" width="63.7" height="142.5"/>
		<path class="st4" d="M247.9,52.8l-11.4-14.1l45.2-36.7c1.7-1.4,3.9-2,6-1.8c2.2,0.2,4.2,1.3,5.5,3l1.1,1.3
			c2.9,3.5,2.3,8.7-1.2,11.5L247.9,52.8z"/>
		<polygon class="st3" points="258.8,163.2 214,107.8 263.5,67.7 308.3,123.1 		"/>
		<path class="st4" d="M286.2,100.2l-11.4-14.1L320,49.4c3.5-2.9,8.7-2.3,11.6,1.2l1.1,1.3c1.4,1.7,2,3.9,1.8,6
			c-0.2,2.2-1.3,4.2-3,5.5L286.2,100.2z"/>
		<polygon class="st2" points="306,138.6 202.9,11.5 211.9,4.2 315,131.3 		"/>
		<path class="st5" d="M294.3,4.6l-1.1-1.3c-2.9-3.5-8-4.1-11.6-1.2l-19.4,15.7l11.4,14.1l19.4-15.7C296.6,13.3,297.1,8.1,294.3,4.6
			z"/>
		<path class="st5" d="M332.7,52l-1.1-1.3c-2.9-3.5-8-4.1-11.6-1.2l-19.4,15.7L312,79.3l19.4-15.7C335,60.7,335.5,55.5,332.7,52z"/>
	</g>
	<path class="st6" d="M360.9,234.6c-20.5,2.9-66.8-30.6-109-26.4c-82.8,8.2-106.3,122.2-75.4,176c7.4-41.2,23.3-70.7,69.6-66.4
		C328.1,325.5,360.9,234.6,360.9,234.6z"/>
	<path class="st0" d="M174.5,393.1c0,0-0.5-0.8-1.4-2.4c-0.5-1.1-1.4-2.7-1.9-4.2c-0.5-1.5-1.1-3.2-1.5-5.2
		c-1.9-7.7-2.1-18.2-0.4-30.3c1.7-12,5.4-25.6,11.3-39.4c5.9-13.7,14-27.7,24.7-39.6c5.4-5.9,11.4-11.4,18-15.6c1.6-1,3.4-2.2,5.1-3
		c1.7-0.9,3.3-1.8,5.1-2.6c3.5-1.7,7-3,10.6-4.2c14.2-4.6,28.3-5.2,39.9-4c11.7,1.2,21.1,4,27.5,6.3c6.4,2.3,9.8,4.2,9.8,4.2
		s-3.5-1.7-10-3.6c-6.5-1.9-15.9-4.2-27.4-4.7c-11.5-0.5-25,0.9-38.2,6c-3.3,1.3-6.6,2.8-9.7,4.5c-1.6,0.8-3.2,1.8-4.8,2.8
		c-1.7,1-2.9,2-4.5,3.1c-5.9,4.3-11.2,9.7-15.9,15.5c-9.4,11.7-16.3,25.3-21.1,38.5c-4.8,13.3-7.5,26.2-8.5,37.2
		c-1,11-0.1,20.1,1.6,25.5c0.4,1.4,0.9,2.5,1.2,3.4c0.4,0.7,0.6,1.3,0.9,1.8c1,1.5,1.6,2.3,1.6,2.3L174.5,393.1z"/>
	<path class="st6" d="M39.9,373.7c13.3-36.3,62-64.1,108.6,3.5c-18.7-5.5-49.9,18.6-68.7,18.6S39.9,373.7,39.9,373.7z"/>
	<path class="st0" d="M148.5,377.2c0,0-1.4-0.6-3.7-1.7c-2.3-1.2-5.7-2.6-9.7-4.5c-4.1-1.7-8.7-3.9-13.9-5.6c-2.5-1-5.3-1.7-8-2.6
		c-2.7-0.7-5.5-1.4-8.4-1.9c-2.8-0.5-5.7-0.9-8.5-1c-2.8-0.2-5.6-0.1-8.2,0c-2.6,0.3-5.3,0.4-7.7,1c-2.4,0.4-4.7,1-6.8,1.7
		c-2.1,0.5-4,1.3-5.7,1.9c-1.7,0.6-3.1,1.2-4.3,1.7c-2.4,1.1-3.8,1.6-3.8,1.6s1.2-0.9,3.3-2.4c1.1-0.8,2.4-1.6,4-2.5
		c1.6-0.9,3.4-2,5.5-2.8c1-0.4,2.1-0.9,3.3-1.4c1.2-0.4,2.4-0.7,3.6-1.1c2.5-0.8,5.2-1.3,8.1-1.7c2.9-0.3,5.8-0.6,8.9-0.4
		c3,0.1,6.1,0.4,9.1,0.9c3,0.5,6,1.3,8.8,2.2c2.8,0.9,5.6,1.9,8.2,3.1c2.6,1.1,5.1,2.3,7.3,3.5c2.3,1.1,4.4,2.5,6.3,3.6
		c3.8,2.3,6.9,4.6,9,6.1C147.3,376.3,148.5,377.2,148.5,377.2z"/>
</g>
</svg>
