<?xml version="1.0" encoding="utf-8"?>
<!-- Generator: Adobe Illustrator 24.0.1, SVG Export Plug-In . SVG Version: 6.00 Build 0)  -->
<!DOCTYPE svg PUBLIC "-//W3C//DTD SVG 1.1//EN" "http://www.w3.org/Graphics/SVG/1.1/DTD/svg11.dtd" [
	<!ENTITY ns_extend "http://ns.adobe.com/Extensibility/1.0/">
	<!ENTITY ns_ai "http://ns.adobe.com/AdobeIllustrator/10.0/">
	<!ENTITY ns_graphs "http://ns.adobe.com/Graphs/1.0/">
	<!ENTITY ns_vars "http://ns.adobe.com/Variables/1.0/">
	<!ENTITY ns_imrep "http://ns.adobe.com/ImageReplacement/1.0/">
	<!ENTITY ns_sfw "http://ns.adobe.com/SaveForWeb/1.0/">
	<!ENTITY ns_custom "http://ns.adobe.com/GenericCustomNamespace/1.0/">
	<!ENTITY ns_adobe_xpath "http://ns.adobe.com/XPath/1.0/">
]>
<svg version="1.1" id="Layer_1" xmlns:x="&ns_extend;" xmlns:i="&ns_ai;" xmlns:graph="&ns_graphs;"
	 xmlns="http://www.w3.org/2000/svg" xmlns:xlink="http://www.w3.org/1999/xlink" x="0px" y="0px" viewBox="0 0 400 400"
	 style="enable-background:new 0 0 400 400;" xml:space="preserve">
<style type="text/css">
	.st0{clip-path:url(#SVGID_2_);fill-rule:evenodd;clip-rule:evenodd;fill:#7ED957;}
</style>
<metadata>
	<sfw  xmlns="&ns_sfw;">
		<slices></slices>
		<sliceSourceBounds  bottomLeftOrigin="true" height="362.7" width="400" x="0.3" y="-379.6"></sliceSourceBounds>
	</sfw>
</metadata>
<g>
	<defs>
		<rect id="SVGID_1_" x="0.3" y="16.9" width="400" height="361.8"/>
	</defs>
	<clipPath id="SVGID_2_">
		<use xlink:href="#SVGID_1_"  style="overflow:visible;"/>
	</clipPath>
	<path class="st0" d="M317.4,66.5c29.4-6.4,54-19.9,74-40.7c8.7,72.6,1.3,138.3-22.3,197.2c-14,20.5-36.4,34.3-66.9,41.4
		c29.1-26.5,47.3-64.6,47.3-107C349.5,123,337.5,91.3,317.4,66.5z"/>
	<path class="st0" d="M52.8,371.9c13-50.4,42.2-78.6,87.6-84.8c-47.5-23.8-80.1-72.9-80.1-129.6c0-3.6,0.1-7.3,0.4-10.9
		C17.7,175.3,0.3,209,8.4,248c10.9,34.2,38.7,48.8,83.5,44c-37.5,26.6-58.3,55.5-62.7,86.8C37.8,380.9,45.8,378.7,52.8,371.9z"/>
	<path class="st0" d="M110.1,76.8c-0.1-1.4-0.4-2.1-0.3-3.8c0.4-2.2,1.6-2.1,2.2-2.1l-1.7,6.4l-1.6,1.8
		C108.4,78.1,109.3,77.6,110.1,76.8z M116.2,92.4c1.7-0.3,2.9-0.9,4.5-0.1c1.6-0.8-1.4,0.7,0.7-0.5c0.1-0.1-0.1-0.1,0.7-0.4
		c2.5,2.5,4.2,0.1,5.2,4.5c-1,0.9-0.4,0.8-1.6,1l-1-2.2c0,0.1,0,0.1,0,0.3c-0.5,2.1-0.7,1-1.6,2.5c-0.9,1.6,0.1,1.7-1.7,2.2l0.1-2.5
		c-1.9-0.3-0.8,0.3-1.7-0.4c1.2-0.8,1.7-1.2,1.7-2.7c-0.4-0.5-1.7-1.2-2.2-1.3c-1.6,1.4-2.9,1.6-4,3.4c-1.3,2.2,0.1,3.2-2.2,5.2
		c-0.9,0.5-0.3,0.4-1.3,0.5c-0.7-1.3,0.4-3.4,1-4.5c1-1.6,1.8-2.9,3-3.4l-0.5-0.1h-0.1c-2.3-0.5,0.8,0.7-0.8-0.1
		C115.3,93.2,115.5,93.2,116.2,92.4z M118.9,84.6c0.3,0.4,0.1,0.3,0.7,0.7l0.7,0.4c0-0.1,0.3,0,0.3,0.1c-0.1,1-0.3,0.8,0,1.4
		l0.4,0.7c0.5,1,0.3,1.7,0.1,2.9c-0.7,0-2.9-0.4-3.6-0.3c-0.5-0.3-1.2-0.7-1.4-1.3c0-0.5,0-0.1,0.3-0.7l0.5-0.5
		c-2.9,0.1-1.8,1.6-5.2,1c-1.9-0.3-0.9,0.3-1.8-0.4c1.8-0.7,3.1-0.9,4.8-1.8C116.6,85.9,113.8,86.3,118.9,84.6z M126.6,99.7
		c1.7-1.9,1.4,0.1,6-0.8c-0.1,0.8-0.4,1.4-0.7,1.9c-1-0.3-1.8-0.1-3-0.7c-1.9-0.8-0.4,0-1.8-0.3L126.6,99.7z M118.3,102.6
		c1-0.5,0.4-0.4,1.7-0.3c0.3-1-0.3-0.3,0.4-1.2c1.3,1.2-0.8,0.4,4.5-0.1l1.8,0.1c-0.5,0.7-0.3,0.8-1.7,1c-2.1,0.7-3.6,1.4-4.7,1.4
		C118.8,103.8,118.9,103.8,118.3,102.6z M337.8,130.8c0.9,1.4,3.2,5.8,1.6,6.2c-0.9,0.3-0.8,0.4-1.6,0l-1.4-1
		c-0.1-0.7-0.4-1.7-1.8-1.7c-1.4,0.1-1.2,0.9-2.3,1.8c-2.1-0.3-2.2-0.7-2.7-2.3c-0.8-2.7-0.4-1-0.1-3.9c0.1-0.9-0.1-1.3-0.1-1.8
		c0-3.2,0.3,0.1,0.7-2.1c0.1-0.9,0-0.4-0.1-1c-0.1-1.3,0-2.1,0.8-3c1.7,1.2-0.9,1.7,2.2,1.6c-0.1,0.1-0.4,1.2-0.4,1.3
		c-0.1,0.9-0.1,0.4,0.3,1.2c1,1.7,0.4,0.9,0.9,2.5l1-1.2c0.4-0.4-0.7,0.1,0.7-0.4c1,0.5-0.5-0.5,1.2,1.4
		C337,129.1,337.7,129.3,337.8,130.8z M335.6,123.3l0.1,2.7h-1.4l-0.7-2.3c0.8-0.8,1.7-1.7,2.2-2.1
		C335.7,122.5,334.8,123.6,335.6,123.3z M166.4,46.5c-1,1-1.9,0.4-2.6,1.6l-0.4,1c0,0,0,0.1-0.1,0.3c-0.7-0.1-1.6-0.1-2.2-0.1
		c-0.5-0.1-3.9-1.6-5.7,1c0.7,1.3,1.8,1.3,3.1,1.2c1.4-0.1,0.8-0.1,1.8,0c0.5,0,1.3-0.1,1.9-0.1c0.1,3.2,0.4,2.5,1.4,2.6l-0.9,1
		l0.8,1.6v0.1c1.2,0.5,0.4,0.1,1.8-0.1c0.4,1.7,0.4,1.2,2.2,1.8c1.6,0.4,1.3,0.9,2.6,1.2c0.5-3-0.7-2.2-1.3-4.3
		c1.8,0.7,2.6,1.9,4.2,2.7c1.2-1.2,0.5-0.3,0.9-1.7c1.3-0.3-0.9,0.5,0.9,0.1c1.2-0.3-0.1,0,0.5-2.9c0.3-1.7-1.2,0.4-1.9-1.9
		c-0.5-1.4,0.7-4.3,2.5-2.3c1.8,1.8-0.8,0.7,0.7,2.7c0.3,0.4,1.2,0.8,1.7,0.9c3-3,1.4-0.4,3-1.7l0.7-1.2c0.8,0.4,1.3,0,2.2-0.4
		c-0.5-0.7-0.7-0.8-1.3-1.3l-0.7-0.3c-1.9-1-0.5-0.1-1.2-1.3l-0.5-0.7c-0.9-1-0.3-0.5-2.3-0.8c-0.9-2.5-1.3-0.8-1.3-1.8
		c0.8-0.8,1.2-0.8,2.9-0.5c-0.1-0.5-0.4-0.4-0.3-1.3c0.1-0.8,0.5-0.7,0.5-1.4l-1.2-0.1c0.8-1.4,0.4,0.7,0.5-1.4
		c-0.9-0.4-1.6-0.8-3-0.8c1.4-0.7,0.8,0.4,1.3-0.9l-0.8-0.7c-0.8-0.4,0.1,0-0.9-0.3l-1.2,1c-0.3-2.1,1.2-2.5-1.3-3.6
		c-0.3-0.1-0.4-0.1-0.8-0.4l-0.4-0.3c0.8,0,2.1,0.3,2.6-0.1c0.1-1.6,0.4-1-1.6-1.4c-1-0.1-1.3-0.4-2.3,0.1c-0.1-1.6-1.3-1-5.1,0.1
		c-2.1,0.7-1.2,0.8-2.1,1.6c-1.9,1.3-0.4-0.3-1.9,1.7c0-2.3-0.1-1.2,0.8-2.1c2.7-2.6,3.9-1.4,5.2-2.5c-3.1-1.8-8.3,2.5-10.8,3.4
		c0.4,1.6,0.9,0.5,1.2,1.6c-0.7-0.1-0.7-0.3-1-0.3c-0.8-0.1,0.4-0.1-0.8-0.1c0,0-0.1,0.1-0.3,0.1c0-0.1-0.1,0-0.3,0
		c-0.3,0.9-0.5,1.4,1.7,2.2l5.3,1.4c3.6,0.9,1.3,0.5,3.2-0.5c1.9,4.8,2.9,4.8,2.6,7.5L166.4,46.5z M171,31.5c-0.3,1.4-0.4,1,0.5,1.8
		c-0.7,0.4-0.7,0.4-1.2,0.7l-1.4-0.5c0.1,0,0.7-0.4,0.7-0.4c0.4-0.4,0.3-0.3,0.5-0.5C171,31.2,169.7,32.1,171,31.5z M275,83.7
		c-1,3.1-1.3,1.9-1.9,2.3c0.9,1.8,1.2,0.7,1.8,1c-0.3,1.9-1,0.5-0.4,2.1c0.5,0,0.7-0.1,1.2-0.9c0,1-0.7,2.7-0.1,3.6
		c0.8-1.2-0.1-1.2,1.2-1.6c0.7,2.3,0,1.2,0.1,2.9c0.3,0.1,1.3,0.5,1.4,0.5c0.9,0.1-0.1-0.4,1,0v0.1l0.3,0.8c0.5,1,0.8,0.9,1,1.7
		c0.1,0.7,0,0.8,0,1.4c-1.9-0.1-1.2-0.3-2.3-0.7c0.1,1.8,0.3,1.3,0.7,1.9l0.1,0.1c0.5,1.3-0.7,1.2-1.4,1.8c0.7,1.4,0.4,0.5,1.9,1
		c1,0.4,1.2,0.7,2.5,0.4c-1.4,1.4-0.7-0.1-2.5,0.9c-1,0.4-1.8,1.8-1.7,2.5c1.6,0.4,1.8-1.6,3,0c0.3-0.3,0.5-0.8,0.7-1.2
		c2.2,0.7,2.1,0.1,3.9,0.4c1.7,0.3,2.9,0.7,4-0.7l-0.4-0.3c-0.1,0-0.1-0.1-0.3-0.1l-1.2-0.8c1.4-0.9,1.4-0.7,1.6-2.9
		c-1.3-0.7-1.3-0.7-3-0.7c0.3-1.2-0.1-1.4-0.8-2.6c-1-2.3-1.2-1.8-1.7-2.2c-2.2-1.7-0.4-3.8-4.3-4.2c0.4-0.5,0.3-0.3,0.5-0.9
		l0.8-3.2c-1.7-0.5-2.1-0.5-3.8-0.1c0.7-2.6,0.9-0.4,1.2-2.5C277.6,83.7,275.7,83.5,275,83.7z M243.7,60c-0.8-0.9,0-0.4-1.3-0.7
		c-0.8,2.5-0.1,0.3-1.3,1.7c2.7,0.5,2.6-0.3,3.8,1l0.1,0.1c0.4,0.5,0,0.1,0.3,0.5c-1.2,0-1.8-0.7-3.1,0.1c1.3,0.7,0.9-0.4,2.7,0.9
		c0.9,0.8-0.8,0,0.8,0.7l-0.8,0.7c-0.7,0.5-0.4-0.4-0.5,0.5c2.3,0.5,1.9-0.1,3.9,1c2.9,2.1,4.3,0.7,7.3-0.4c0.9-0.3,1.9,0,2.9-2.2
		c-2.3-2.1-1.2,0.1-2.7-2.2c-1-1.7-0.4,0.1-2.3-1.8c-1.3,0.7,0.4,0.9-1.9,0.8c-2.3,0-1.7-1-3,0.4l-0.9-1c-0.7,1.3,0.7,0.4-0.4,1.2
		c-1.9,1.6,0.1-1.3-3.6-2.6C243.2,59.4,243.5,59.5,243.7,60z M177.6,87.1c-1,1.3-3.4,3.1-4.2,4.2c-1.3,1.7,0.1,0.5-1.8,1.7
		c-0.9,0.5-1.8,1.3-2.1,2.5c2.1,1.4,6.2,0.4,7.5,1.4c0.5,0.4,0.1,0.3,0.5,0.7l-1.8,0.8c1.4,1.6,2.2-0.9,4.5-1.3c0,0.8-0.4,1-0.7,2.1
		c0.5,0.3-0.3,0,0.5,0c1.4,0.1-0.4,0.5,1.7,0.9l1.4-2.6c-0.8-0.3-0.1-0.4-0.9,0.1c0.3-0.8,0.3-0.3,0.5-1.4l-1.8,1.2
		c1.2-2.5,1-0.9,1.8-2.2c-0.9-0.4-0.1,0.3-1.4-0.4c0.4-0.7,0.8-0.5,1-0.9c0.5-0.8,0.4-0.7-0.5-1c-1.7-0.8-2.5-0.3-3.2,0.5
		c-0.1-0.3-0.3-0.8-0.4-0.9l-0.1-0.4c-0.1-0.4,0-0.8-0.4-1.2c-0.9-0.8-0.1,0.8-1.4,0c0.7-0.9,1.2-0.8,3.4-3.6L177.6,87.1l1.7-0.6
		c1.9-0.9,0-0.1,1.3-3c0.4-0.9,0.1-0.7,0.3-1.7c-2.6-0.9-1.4-0.5-2.7-1.3c-0.7-0.4-0.1-0.3-0.9-0.4c-1.6-0.3-2.6,0.7-4,0.7
		c3.9-1.8,4.2-0.8,5.2-1.6c-0.7-0.5-1.4-0.8-2.2-1.3c-3.4-2.1-1.4,0.3-3.4-2.6c-1.3-1.7-1.8-1.3-0.3-2.9c0.7-0.8,0,0.1,0.5-0.5
		c-1.8-3.2,0.1,1.4-1-3.6c-0.4-1.4-0.5-3.8-1.4-4.9c-1.2,0.8-1.8,1.7-3.2,2.9c-1.4,1.3-0.3,0.7-1.7,0.9c-0.5,0.1-1.6,0.4-2.3,0.7
		c-1.3-1.7-0.1-2.6-3.1-1.9c0.3-1,0.1,0.3,1.2-1.6l1.3-2.3c0.7-1,0.4-0.1,0.9-1.3c-0.1-0.1-2.1-0.8-2.9-1L159,56
		c-4.8,0.9-4.5-1.8-7.3-0.4c-0.7,1.7,0.4,0.9-0.9,2.3c-1.6,1.6-0.7,0.1-1.4,2.3c-0.7,2.1-2.1,2.1-3.6,3.2c0.3,1.4,1.3,1.4,1,3.6
		c-0.4,3.2-4.7,5.2-8.3,5.6c-0.1,1.7-0.7,6.1-2.2,7l-2.7,1.3c-0.8-1.2-1.9-3.4-1.2-5.2l2.6-4.4c-1.6-0.9-1.8-0.9-4-1
		c-1.7-3.2-0.4-0.8-1.9-2.3c-1-1-0.3-1.8-1.9-2.6c-1.3-1.3-1-1-3-0.7c2.3-5.2,1.3-3.5,0.9-4.5c-0.5-1.2,1.2-2.7,1.9-3.4l0.8-0.5
		c2.7-1.8,4.9-4,7.8-4.8c1-0.3,0.5,0,1.6-0.5c0.1-1.2,0-1.2-0.7-1.7c0.9,0.5,0.7,0.9,1.8,0.9c1.6,0,0.7-0.4,2.6-0.7
		c2.9-0.3,2.6-1,4.7-1.9l-1.2-0.9c1.7,0,1.6,0.5,3.1-0.4c1.9-1.3,0.4-1.4,1.9-1.7c0.9,1,0.5,1,1,2.2l0.4-0.3c0-0.1,0,0,0.4-0.5
		l0.3-0.5c0.1-0.3,0,0.4,0.3-0.8c1.2,0.7,0.3,0.5,1.6,0.4c0.5,0,3.2-0.9,3.9-1.9c0.1-0.8,0.3-0.8,0.5-1.7l2.3-1.2
		c0.7-0.4-0.1-0.1,0.7-0.4c-0.1-0.3-0.3-0.5-0.4-0.7c-0.7-1.3-0.3-1.8-3.6-1.4c-1,1.7,0.1,1.3-3.2,2.7c-0.8,0.3,0,0-0.7,0.1
		c-0.1,0-0.1,0-0.3,0c-3,0.5,0.1,1-2.9,1.7c0.9-2.7,2.9-0.8,2.7-4.2c-0.9,0.4-1.2,1-3.2,1.6c0.4-0.8,1.7-1.6,2.5-2.3
		c-0.8-0.9-0.1-0.1-1.2-0.5c0.1,0,0.3-0.1,0.3-0.1s0.1-0.1,0.3-0.1c2.1-0.9,0.9-0.7,2.1-1.8c1.6-1.7,0.9-0.3,1.8-2.9
		c2.1,0.3,1.2,0,2.6-0.7c1-0.5,0.5,0,1.8-0.4c0.8-0.3,3.6-1.3,4.3-1.7l-1.4-1.2c-3.2,0-6.4,3.1-10.9,5.3c-1.4,0.7-2.5,1.2-3.8,1.9
		c-0.3,1.8,1.2,0.7-1,3.2c-1.2,1.3-1.7,0.7-3.2,1.6c-1.2,0.7-0.8,0.8-1.9,1.2c0.1-1.6,0.4-0.3,1.9-1.8l-1-0.9
		c-3,0.7-1.8,2.7-6.1,0.1c0.7-2.2,0.4-0.1,1.2-1.8c-2.2,0.5-2.2-0.3-3.6,1.3c0,0.1,0,0.1-0.1,0.3l-1,0.9c-0.4,0.5-0.9,0.8-1.4,1.2
		c0.5-0.8,0.8-1,0.8-2.2l-2.5,0.3c1.2-2.1,2.5-0.1,2.3-2.9c-10,5.8-19.4,13-27.7,21c-0.1,0.1-0.3,0.3-0.4,0.4l-0.1,0.1
		c-0.3,0.3-0.5,0.5-0.9,0.9c-0.3,0.3-0.5,0.5-0.8,0.8c-11.6,11.7-21,25.5-27.9,40.8c-0.9,4-4,11.7-3.6,13.5c0.1,1.2,0.9,1.8,0.8,3.9
		c-0.1,1.9-0.4,2.7-0.8,4.3c-0.5,2.7,0.1,6-0.1,7.5c-0.4,2.1-0.4,0-0.9,1.6c0.5,0.9,0.5,1.6,0.9,2.6c1.6,3.9-0.7,0.4,0.9,6
		c0.4,1,0.1,2.6,0.7,3.2c1.8-1.6,0-2.5,0-4.8l-0.5-11.4c-0.3-1.7-0.3-4.2,0.5-5.5c1.6,1,0.7,3.2,0.7,6.6c0.1,2.6,0.9,4.8,1,6.6
		c0,2.1,0.1,3.5,1,5.6c1,2.1,1,3.9,1.2,6.4c0.1,2.2-1.8,3.6,1.7,8.1c0.9,1.3,6.5,6.9,7.8,7.3c1.6,0.5,1.6-0.4,3-0.8
		c1.2,1,1.2,0.7,2.1,2.5c2.5,4.8,1,2.1,5.1,4.8c1.2,0.8,1.8,1.6,3.4,1c-0.3,1.3-0.4,0.8,0.5,1.9c2.3,2.9,1.8,3.8,2.1,4.9
		c0.5,2.3,2.2,0.8,3.4,3.5c1.3,3.1,1,0.5,4.8,3.9c0.8,0.8,0,0.5,1.2,0.8l0.8-0.4c-0.3-1-0.3-0.1-0.5-1.6c1.8-1,0.5-1,2.3-1.6
		c1.2,1.2,1,0.5,1.2,1.8l0.9,2.3c1.7,2.3,0.5,3.6,1,6.4c0.3,1.3,0.7,1-0.1,2.3c-1.3,1.8-1.3,0.5-1.9,1.7c-0.4,0.8,0,1.2-0.8,1.9
		c-0.5,0.7-0.8,0.3-1.3,1.3c-0.3,0.7,0.1,0.4-0.4,1.3c-0.4,1.3-1.3,4,0.1,4.9l1.2,0.4c0,0,0.1,0,0.3,0c-0.4,2.2-1.2,0.7-2.1,2.5
		c-0.7,1,0.4,1.8,0.8,2.7l0.1,0.7c0,0.5-0.1,0.1,0.1,0.7c0,0,0.9,0.9,1,1c2.6,1.9,0,0.1,2.9,3.8c0.4,0.4,0.5,0.8,0.9,1.4l5.1,7.8
		c1.7,5.2,4.4,5.7,9.1,9.1c2.3,1.7,0.9,1.8,3.4,2.6c0.4,2.7,1.8,4.3,1.8,8.6c0.1,2.5,0.9,2.6,1,3.9c0.3,2.9,0.5,1.6,0.5,4.3
		c-0.1,3.5,1.6,5.5,2.5,8.2c2.1,5.8-0.5,6,1.7,8.2c0.9,1,1.2,1.8,1.6,2.6c5.6-1.6,11.3-3,17.1-4.2c-0.1-0.3-0.4-0.4-1.2-1
		c-0.1,0-0.1-0.1-0.3-0.3c1.7,0.1,1.3,0.4,2.6,0.9c0.1,0,0.3,0,0.4,0c1.2-0.3,2.3-0.5,3.5-0.7c0.9-0.9,1.6-1.9,1.6-3.5
		c0.7,0.7,0.5,0.7,1.3,0.1c2.2-1.3,0.9-1.4,1.9-2.7c0.8-0.9,1.4-0.7,1.8-1.9c0.7-3-1.4-3.6,1.8-5.1l1.8-1.2c5.2-0.8,1.6-1.4,4.5-1.3
		c1.2,0.1,3.8,0.8,5.1-0.7c1-1-0.5,0,1.4-2.2l1.9-1.9c0-0.7-0.1-0.8,0.1-1.6l0.3-0.8c0.1,0,0.1-0.1,0.1-0.1c2.2-4,1.2-3,1.7-6.1
		c0.1-0.9,0.5-1.7,0.8-2.9l0.4,0.1c1.6,0.5,2.1-0.4,2.9-1.7c0.8-1.4,0-0.5,1.6-1.4c0.8-0.4,1.4-0.8,2.1-1.3c3-2.3,3.2-4.8,2.7-8.6
		c-4-1.7,0.4,2.1-6-3.2l-0.9-0.9c-1.3-0.7-0.5-1.6-2.6-1.9c-1.3-0.4-2.5-0.1-3.8-0.5c-1.3-0.5-1.7-1.2-3.1-1.2l-2.5,0.4
		c1.3-2.6,0.4-2.5-2.1-3.5c-1.6-0.7-2.9-1.7-4.4-1.8c-1.7,1.3-1.9,3-3.5,1.4c1.7-0.3,2.5-0.8,2.3-2.6c-1.4-0.3-2.9-0.5-4.2-0.8
		l-0.7,1.8c-2.3-0.3-1.8,1.2-3.4,0.4c0.1,0,0.3,0,0.3,0l1.6-1.3c2.1-2.9,1.6-0.1,3.9-3.9c-1.2-2.2-1.8,0.5-2.2-4.8
		c0-0.9,0.1-0.5-0.5-1.2c-1.7-1.8-2.1-2.3-4-3.2c-1.6-0.7-0.5-1-2.2-1.4l-1.3-0.3c-1.4-0.1-0.7-0.5-1.8-0.4h-0.1
		c-2.1,0.3-1.2-0.4-3,0c-0.1-1.6-0.9-2.3-2.6-2.5c0.4-2.5-1.6-2.7-3-4.5h-3.1c0.9-0.8,1.4-0.9,1.3-2.3c-0.5-0.3-1.9-0.9-2.3-1
		c-1.7-0.7-0.3-0.3-1.7-1c0.9-0.3,0.8,0,1.4-0.5c-2.7-1.8-5.3,0.1-6.2,0.1c-3.1,0,0.8-1.6-6.5-1.4l-0.9-2.6l-2.2-0.1
		c-0.3-0.9,0-1-0.8-1.8l-0.4,1.7l-2.5,0.5c-0.3,2.3,0.9,2.5,0.3,3.9c-0.9,0-0.9-0.1-1.7-1.2c0.8-2.3,1.2-0.8,0.7-3.6l0.4-0.4
		c0.1,0,0.3,0,0.3-0.1c1.2-0.8,0.8-0.5,0.9-1.2c-1.3-2.1-2.3,0.3-3.6,0.8c-1.2,0.4-1.3-0.1-2.6,0.5c0,0-0.1,0-0.3,0
		c-1.3,0.8-0.8-0.4-1.8,0.1c-1.3,1.8-0.3,2.1-1.4,3.2c-0.4,0.4-1.6,1.2-2.3,1.8c-1.6-1.2-1.6-2.1-3-2.3l-1.3-0.9
		c-5.5,1.7-4.7,1-5.7-0.9c-0.4-0.7-1.2-0.9-1.6-1.7c-0.9-1.6-0.1-3.9,0-5.6c0.3-4.2,0.4-0.1,0.8-5.1c-1.4-0.7-1-0.3-1.7-2.1l-6-0.7
		c-1.4-0.1-0.8,0.5-1.4-0.7c-0.4-0.9,0.1-0.1,0.4-0.8c0.4-0.9,0.9-3.9,0.5-5.1c1-0.5-1.3,0.3,0.7,0.3c0.9-0.1,0.7-1.3,0.9-2.7
		c0.7-2.9,1.8-1,1.4-4.2c-1.2-0.7-3.9-0.1-5.7,0.1c-0.8,6.4-1.8,3.2-2.2,5.8c-0.1,0-0.7-0.3-0.7-0.3c-2.3-0.3-4,1.8-5.7-2.5
		c-1-2.6-1.8-5.7-1.4-8.8c0.1-1,0.5-3.1,0.8-4.2c0.1-0.4,0.3-0.8,0.4-0.9c0.4-0.9,0,0,0.4-0.9c0.4-0.7,0.4-1.4,0.4-2.3
		c0.1-1.3,0.5-2.7,1.2-3.9c1.3-2.1,1.7,0.7,2.7-1.9c0.7-0.3,0.1,0.3,1-1c1.2,0,0.9-0.3,1.9,0c0.8,0.1,0.5,0.3,1.4,0.5
		c1.4,0.3,1.4-0.5,1.8,1.4c1.4,0,1.2-0.4,1.9-0.1c1.4,0.4-0.8,1.2,1.2,0.5v-0.7v-0.1l-0.7-1.9l3.2-0.1c3.4,0.1,2.7-0.1,4,2.7
		c1.9,0,0.8-0.4,2.2-0.9c0.7,0.9,0.3,0.8,0.8,1.6c0.7,1.3,0.4,0.4,1.2,1.4l-0.9,2.6v0.1c0,0.1,0,0.1,0,0.3l0.1,0.4
		c0,0.4,0,0.7,0.1,1.3c1.9,8.6,4.9,4.3,4.3-0.3l-0.4-3.5c0-0.7,0-0.3,0-1c-0.3-2.2-0.5-4,0.7-5.7l1.3-1.3c0.1-0.1,0.1-0.1,0.3-0.1
		l1-0.8c2.1-0.8,5.5-4.2,8.4-4.4c0.7-1-0.8-0.4,0.5-0.9c0.7-0.4,0.9,0,1.7-0.9l-1.2-0.8c0,0,0.9-0.1,1-1.2c0-1-0.4-1-0.9-1.7
		l0.8-1.7l-1.2-1.4c1.6,0.9,1.2-1.3,2.6-1.8c-0.7,1.9-0.9,1.4-0.7,2.6c0.5,2.3-0.3,0.7-0.5,2.5c0.3-0.1,1.6-1.4,1.8-1.8
		c0.8-0.9,0.9-1.9,0.4-3.2c1,0.4,0.3,0.1,0.8,0.5c0.5,0.4,0,0.3,0.8,0.5c1-0.8,0.1-0.1,0.9-0.9l0.8-0.9c1.3-1.8,0.1-0.9,0.4-1.8
		c1,0.3,3.6,0.1,4.5-0.4c-1.3-0.8-1.3,0.1-2.5-0.5l7.7-0.3c-2.5-1.2-1-1.7-0.9-4.3c1.8-0.3,0.4-0.3,2.7-0.9l1.8-0.7
		c0.1-0.1,0.1-0.1,0.3-0.1l0.5-0.1c0.1,0,0.3,0,0.3,0l9.1-1.7l0.4,0.9c-1.6-0.4-1.6-0.4-2.7,0.4c-1,0.7-1.6,0.7-2.3,1.3l0.5,2.1
		c2.1-0.3,2.1-0.9,3.1-1.4c1.2-0.7,6-1.2,7.3-1.6c0.1,0,0.3-0.1,0.3-0.1c1.2-0.4,2.5-0.1,3.1-1.2l-0.4-2.5c-2.3,0.1-3.5,2.5-3.6,2.6
		l-2.3-0.5c-0.9-0.3-1.3-0.7-1.9-1.2c-1.9-1.9-0.5-3.5-0.4-4.5c-1.8,0-1.6-0.1-3-0.7c0.4-0.3,0-0.4,0.9-0.1c0.3,0,0.7,0.3,1,0.5
		c0.1,0,0.3-0.1,0.3-0.1c0.4,0.7-0.4,0.4,1.4-0.5c0.8-0.4,0.9-0.4,1.4-1.4c-2.1-3.6-8.8-0.1-11.2,0.9c-0.8,0.3-1.2,0.4-1.8,0.8
		c-0.5,0.3-0.9,0.7-1.6,0.9c0.4-1.2,1-0.9,3-2.1c0.9-0.5,2.5-1.4,3.4-1.9c2.1-0.9-0.4,0.8,3.6-1.7c1.7-0.9,8.1,0,9,0.3
		c1.8,0.4,3.8,1.3,5.6,0.8l2.6-1.4c1-0.8,0.7-0.5,2.2-0.5C176.3,86.8,176.6,86.8,177.6,87.1z M276.3,97.4l-0.8-1.2
		c-0.1-0.1-0.4-0.8-0.5-0.9c0.8-0.4,1.3-0.3,1.3-1.3c0-2.6-4.5-2.6-4.7-2.6l-0.8,0.1c-0.1,2.3,0.8,0.4,0.1,1.7
		c-0.5,0.8-1.2,0.1-1.7,0c-2.1-0.4,0-0.7-0.8,2.5l1.7,0.7c-2.6,3.8-1.6,4.9,3,3.8C276.9,99.3,275,100.8,276.3,97.4z M123.1,155.9
		c-0.3-0.7-0.9-0.7-3-2.1c-2.5-1.8-1.6-1.7-3-2.2c-1.8-1.8-0.9-0.8-2.2-1.6c-1.6-1,0.7-0.5-1.9-1.6c-2.7-1.2-7.8-2.3-8.3,1.6
		c2.2,0.4,3.1-2.2,5.2-1.2c0.4,1.6-0.3-1.6-0.1,0.7c0,0.8,0.8,0.9,1.7,1.3c0.1,0,0.3,0.1,0.3,0.1l1.3,0.7c1.2,0.5,1.2,0.3,2.5,0.4
		c0.4,2.7,0.8,1.9,2.6,2.9c-0.7,1.7-0.7,0.1-1.3,1.7c1.3,0.4,2.6,0.3,3.8,0.7c0.5,0.1,0.8,0.8,3-0.1l0.5-0.1
		C123.6,155.9,124,156.4,123.1,155.9z M260.4,32.4l1.6,0.8c1.4,1,2.2,2.9,4.8,1.9c0.8,1.6-1.3,0.5,0.7,1.6c1.4,0.7,0.7,0.1,1.6,1.2
		l3.9,2.3c-0.8-2.3-1-1.6-1.9-2.7c-0.3-0.3-0.5-0.8-0.8-1.3c4.5,2.1,0.9,1.9,4.4,2.7c0.3-1.7-1.6-1.8-3.1-2.6
		c-1.2-0.5-0.5,0.3-0.9-1c-1,0.4-0.3,0.3-0.5,0.4l-0.5,0.4h-0.1c-0.5-0.9,0.7-1.3-2.9-2.3c0.5-0.4-1.4-0.5,1-0.1
		c1.2,0.1-0.3,0.4,1.4,0.5v-0.1c-1.8-0.9-3.6-1.9-5.6-2.9c-0.3,0.3-0.4,0.5-0.7,1L260.4,32.4z M166.4,26.1l-0.4,0.5
		c-1,1.3-0.8,0.5-0.9,1.4l9.4,1.4l2.7-1.3c-0.9-2.6-3.2-0.3-7.1-1.9c0,0-0.1-0.1-0.3-0.1c0.5-0.9,0-0.1,0.8-0.7l0.9-1l-0.8-0.4
		c-1.7-1-0.3-0.8-1.7-0.8c-0.4,0.1-1.2,0-1.4,0.7c-0.4,1,0.3,0.1,0.8,1.6C167.5,25.9,167,26.1,166.4,26.1z M132.5,159.3
		c-1.7-0.3-1-0.7-3.6-0.8c-1.7-0.1-1.4-0.5-3.4-0.7c1.4,2.3,0.4-0.1,1.4,3.2c-1.8,0-3.1-1-4.3-0.5c0.3,0.5,0.7,0.9,1,1.4
		c1.3-0.3,1.3-0.5,3-0.3c2.5,0.4,0.9,0.7,2.3,1.6c1.8-0.4,0.4-0.4,1.4-0.7c2.1-0.7,4.2,0.3,5.3-0.5c-0.5-1.2-0.8-0.7-1.8-1.4
		L132.5,159.3z M302.8,132.8l0.7,5.1c1.2,0,0.9-0.3,2.2-0.7c0-3.5,0.5-3.8-0.9-5.5L302.8,132.8z M314.3,144.9
		c-0.1-1.7-0.5-2.3,0.1-3.8c-1.2-0.3-1.4,0-2.3-0.1c-0.8-0.1-0.1-0.3-1.3-0.5c-0.5,0.3-0.7,0.4-0.9,0.9
		C310.4,142.3,312.6,144.3,314.3,144.9z M200.9,44.3c-1.7-0.7-1.2-1.7-3.8-1.4c-0.9,2.7,0.9,2.9,3.6,2.3L200.9,44.3h2.3
		c-0.1,0.3-0.7,1.3-0.8,1.4l-0.8,0.8l-0.1,0.1c-0.5,0.5-0.9,1.6-0.7,2.5c-0.8-0.5-0.8-0.4-1.6-0.8c1.3-1,0.7,0.1,1.2-1.2h-2.1
		c-0.3,0.9,0.5,0.1-2.6,2.3c0.3,1.7-0.4,0.7,0.7,1.4c-0.5,0.4-1,0.3-1.3,1.2c0.8,1.6,1.2,2.7,1,5.1c0.5-0.3,1.4-0.9,2.7-0.3
		c-1.9,1-1.9-0.1-2.5,2.3c1.3,1.4,0.9-0.1,1.3,1.6l0.8,2.6c0,0.1,0.1,0.1,0.1,0.3l0.4,0.5c0.9,1.4,0.9,1,1,2.9
		c1.4-0.1,0.8-0.4,1.9-0.3c1,0,0.7,0,2.2,0c0.5,1.4,1.2,1.3,1.4,2.9c2.2-0.3,0.9-0.3,3.4-0.1c0.4-1.6,0.5-0.7,1.7-2.7
		c0.7-1.2,0.7-2.2,0.3-3.5l2.1,0.1l0.7-1.2c0.3-0.3,0.8-0.5,1.3-1c-0.3-1.4,0.1-0.3-0.9-1.3c1.3-0.8,1.2,0.8,0.9-1.7
		c3.1,0.9,0-1.7,4.3-0.8c0.7-0.9,0-0.9,1.3-1.6l-0.9,1.9c3.6-1.3,5.6-0.7,7.1-3c0.9-1.2,0-0.5,1.3-1.2c2.6-1.3,0.1,0.1,1-1.7
		c1.3,0.8,0.8,1.7,3.2,1.2c4.8-1.3,4.4,0.5,7.1-1.6c0.9-0.7,1.9-0.8,3.2-1.3l-3.4-1.3c-2.1-0.7-3,0.4-4.3,0c0.9-0.5,2.3-0.7,3.2-1.4
		c-0.7-0.5-0.7-0.4-1.8-0.3H235c-0.1,0-0.3,0-0.3,0l1-0.1c0.7-0.1,1-0.1,1.6-0.3c0-1.6-0.7-0.1-0.1-1.3l1.3,0.9
		c1,0.7,0.7,0.3,1.4,1.3c1,1.3,2.3,1.3,3.9,1.4c-0.4-1-0.9-2.6-1.8-3.4c-0.1-0.1-0.1-0.1-0.3-0.3c-3.1-2.7-1.8,0.8-4.2-4l1-0.5
		c1.4,0.8,2.2,2.1,4.5,0.9c-0.7-1.7-1-0.4-1.9-1.8c1.3,0.5,1,0.5,2.9,0.3l-0.8-0.9l-0.1-0.1c-0.7-0.7-0.5-0.7-1.2-1.2h0.8
		c0-0.1,0.1-0.1,0.3-0.1h0.1c-1.6-3.8-2.1-1.3-4.3-3.6l3,0.1c0.8-0.1,0.3,0.1,0.7-0.1c-0.9-1.8-2.5-0.7-2.3-1.7
		c0-0.1,0.1-0.4,0.1-0.5c-0.8-0.3-1-0.3-1.9,0.3c0.1-1,0.1-1.4-0.3-2.1c1.9-1-0.1,0.7,1.6-2.3c-0.1,0-1.2,0-1.2,0l1.3-0.4
		c-0.4-0.8,0.4,0-0.4-0.5c0,0-0.1-0.1-0.3-0.1l1.6-0.5c0-1.7-1.6-1.8-3.1-1.7c-3.5,0.1-1.8,0.3-3.4,1l0.3-2.1
		c-2.1-0.3-1.2,0-2.6,0.5l-0.1-0.9c-1.3,0-3.9,0.4-4.7-0.3c1.3-0.8,4.8,0.8,6.6-0.3c-2.2-0.5-1.8-0.4-3.5-1.3
		c-1.7-0.9-5.1-1.6-7.1-1c-0.8,0.1-2.3-0.3-5.5,0c0.4,0.4,0.7,0.5,0.9,1.2c-1.2-0.7-1.4-1.2-3.1-1.3l-0.4,1
		c-2.3-2.2-4.5-0.8-7.9-1.3l1.6-0.5c-1.2-1.6-0.9-1.3-5.8-1.8c-0.9-0.1-0.8-0.1-1.6-0.1c-0.7,0-0.1,0-0.7,0
		c-2.3-0.4-11.3-0.8-13.3,0.9c-1,1,0.5,0.9-2.2,1.9c0.4-0.9,0.5-0.8,1.2-1.7c0.1,0,0.4-0.3,0.5-0.5c-1.3-0.8-4.3,0.1-5.7,0.7
		l-4.8,2.6l-0.1,0.5c0.8,0.1,1.7,0.3,2.1,0.3c1.4-0.3-0.8-0.8,6.2-0.9c-0.7,1.7-0.4,0.4-2.7,0.5c-2.6,0.1-1.8,0.4-3,1.7
		c-0.1,0-0.1-0.1-0.1-0.1c-0.5,1-0.4-0.1-0.4-0.3c-0.5-0.1,0.8-0.4-0.9-0.1c-1.2,0.1-0.5,0.1-0.8,0.3l-0.5,0.5
		c-1.3,0.8-2.5,0.3-3.9,0.3c0.3,0.9,0.1,0.1,0.8,1.4c1.2-0.4,0.7,0,2.5,0c0.9,0.1,1.7,0.1,2.9,0v1.2c1-0.1,3.9-0.1,4.3-1l0.1-0.4
		c0.1,0,0.1-0.1,0.1-0.1c0-0.1,0-0.3,0.1-0.3c0.5-0.1,0.8,0,1-0.1l0.8-0.3c2.6-0.9,0.8-0.1,2.5-0.3c1.3-0.1-0.1,0.1,0.9-0.3
		c3.2-1,1.9,0,2.1-2.2c2.6,1.8,10.4-1.7,16.9-1.7c-0.5,1.9-1.2,0.7-3.5,0.8c-1.2,0.1-2.9,0.5-3.8,0.8c-0.4,0.9,0,0.1,0.5,1.6
		l-9.9,0.9c1,3.1,2.2,1.3,4.3,1.9c-1.4,0.9-5.2,0-5.6,0c0.3,1-0.1,0.1,0.5,0.8c0,0.1,0.4,0.3,0.8,0.7c-1.4,0.8-0.9-0.4-0.9,1.2
		l5.7,0.3c1.9,0,4.2,1.7,4.3,2.5c0.1,0.1,0.1,0.1,0.1,0.3l0.4,1.7c0.4,6.1-1.4,4.7-2.6,6.2c1.9,1.4,2.1,0.8,3.6,0.1
		c0.4,0.3,0.3-0.7,0.4,0.9c0.4,1.8,1.2,1,1.4,2.2c-1.9,0.4-0.5,0.1-1.2-0.3c-0.3-0.1-1-1.2-3.4-0.7
		C199.1,43.8,200.1,42.4,200.9,44.3z M164.4,91.6l1.6-0.7c-0.8-1.4-3.4-2.3-4.9-2.5c0.8,1.2,0-0.3,1,0.9L164.4,91.6z M116.3,161.5
		c1.2,0.1,2.3,0.4,3.1,0l-1.7-1.6c-0.8-0.4-1.9-0.3-3-0.4c0.7,1.4-0.1,0,0.8,0.9C115.8,160.7,116,161.1,116.3,161.5z M303.2,128.2
		c0.1,1.6,0,2.6,1.2,3.2c0.5-0.5,0.5-0.5,0.5-1.8l-0.1-1.6c-0.3-0.5-0.3-0.4-0.4-0.7C303.7,128.2,304.4,127.8,303.2,128.2z
		 M138,163.8c0.8,0.9,1.9,0.9,3.1,0.5c0.8-0.3,0.4-0.3,0.7-0.5c-0.9-0.9-2.2-1-2.9-0.8C137.1,163.7,138.6,163.2,138,163.8z
		 M241.9,44.8c0-0.8,1-2.1-3-2.2C239.3,43.9,240.5,44.4,241.9,44.8z M307.9,91.5c0.4,1.3,0.4,0.9,1.3,1.2l-0.5-2.6
		C307.9,90.3,307.6,90.2,307.9,91.5z M271.7,84.3l0.5,0.9c1-0.5,0.4,0,1.2-0.8v-1.2L271.7,84.3z M245.8,39.4l-1.7-1.4
		C244.1,38.1,242.4,39.4,245.8,39.4z M275.6,145.6c-1.4,1.6-2.3,0.3-4.2,2.1c-0.4,0.4-1.9,3.1-2.1,4.2c-0.3,3.2,0.5,2.5-1.8,4.5
		c-1.9,1.6-2.1,1.4-4.7,1.9c-1.8,0.4-1.6,2.1-3,3.4c-2.1,1.9-1.3-0.5-2.7,3.4c-0.9,2.5-1.7,1.3-3.1,3.2c-0.5,0.7-0.8,1.7-1.2,2.2
		c-0.3,0.3-1.4,1.2-1.6,1.4l-0.5,2.1c1.6,1,1.9,0.5,1.2,2.9c-0.7,1.9,0.4,2.9-0.1,4.7c-0.3,0.7-1.2,1.9-1.7,3.4
		c-0.5,1.8-1,1.8-2.5,2.7l1.3,3.4c-0.4,0.1,0.4,0-0.3-0.1c-0.8-0.1,0.7,0-0.7-0.1l-0.3,2.5c1.6,1.3,0.7,1.9,3.4,1.3
		c-0.7,1.3-1.4,0.9-0.4,2.3l0.1,0.1c0,0.1,0.1,0.1,0.1,0.3l0.9,1.4c0.9,1.6,1.7,1.3,1.4,3.4c-0.1,1.3-0.1,1.9,0.7,2.9
		c1.4,1.3,0.7,0,1.9,2.1c0.7,1,0.1,0.4,0.9,1l0.9,1c0.9,1.4,2.6,2.6,3.9,3.9c5.7-1.8,6-1.8,10.7,0.5c1.2-0.5,0.9-0.7,2.6-0.8
		c0.1,0,0.3,0,0.4,0c2.6-0.3,3.5-1.3,5.2-1.4c5.6-0.3,5.1,1.6,5.1,5.2l0.9-0.1c1.4,0,1.2,0,2.2,0.1l1.7,0.1c1.2,2.5,1.3,2.6-0.9,5.7
		c-0.1,0.1-0.3,0.3-0.4,0.5c-0.9,1.7-0.8,1.7-2.3,3.6l-0.7,0.8c0,1.9,0.1,4.4,0.9,5.7l-1.3,7.9c-0.8,1.8-0.8,0.8-1.4,1.9
		c-0.9,1.8-0.4,2.9-1.7,4.3c-1,1-2.3,1.6-3.5,3c-1.8,0.1-0.9,1.8-3.2,3.2c-1.7,1-0.7,0.4-1.6,1.7c-0.8,1.2-1.3,0.9-1.9,1.8
		c-0.5,0.8-0.5,2.1-0.8,3.5c10.5-0.9,21-2.5,31.2-5.1c2.6-2.7,5.2-5.6,7.7-8.4c1.4-2.7,1.9-2.5,2.5-3.8c0.9-2.2,2.7-4.2,4.3-6
		c0.7-0.8,1.4-1.4,1.7-1.9l0.7-0.9c5.8-8.8,10.8-18.4,14.4-28.6c0.1-0.3,0.1-0.7,0.3-1.2c0-1,0.3-2.2,0.1-3.4
		c-0.4-6.1,0.4-3.4,0.5-6.4c0.1-5.5,0.3-4.2,0.8-9.2l-0.3-10.4c-0.4-4-0.1-3.5-0.9-7.9v-1.6c0-0.5,0.1-0.5,0.1-0.5
		c0.5,0.8,0.3,1.4,0.4,2.5c0.5,3.9,1.3,0.1,1.9,3.5c0.1,0.9,0.1,2.1,0.1,2.9c0.1,6.5,1.2,7,0.4,10.8c-0.8,3.1,0.5,2.9-1,10.7
		c-0.1,0.8-0.5,3.4-0.9,5.8c4.5-13.8,7-28.6,7-43.9c0-11.6-1.4-22.7-4-33.4c-4.5-18.4-12.6-35.5-23.6-50.3c-1.8-0.4-0.9-0.4-2.1-1.6
		c0.3,1.8,1,1.3,1.8,2.7c-1.3-0.4-1.6-0.4-2.2-1.4c-0.6-1-1.9-3.4-2.7-3.9c-1-0.9-0.7-0.3-1.6-1.4c1.7,0.4,3,1.9,3.8,2.1
		c0-0.1,0-0.3,0.1-0.3c-1.9-2.5-3.9-4.8-6-7c-0.9-0.7-2.3-1.7-3.2-2.1c-3.1-1.7,0-1.8-4-1.9c-0.7-2.1,0.3-1.4-1.8-2.5
		c-1.8-0.9-1-0.1-2.7-0.8c0.5,1.6,0.4,0.4,0.9,1.7c-1.7-0.4-0.3-1.8-2.2-2.1c0.4,0.9,0.4,0.9,0.7,2.1c-3-1.2-1.4-1-1,1.2
		c-0.5-0.4-0.5-0.7-1.6-0.7c-0.3,1.7,0,2.2,0.1,3.2c0.1,0.9-0.7,0.4,0,2.1c0.7,2.1-0.7,0.4,0.1,3.1l0.5,3.2c0,0.1-0.1,0.4-0.1,0.5
		l-1.4,3.6c0,0-0.4,0.4-0.5,0.4c-0.7,0.4-0.9,0-1,0c0.4,1,0,0.1,0.8,1c-2.1,0.1-1.4,1.2-1.6,1.7c0,0-1,0.8,0.3,2.7
		c0.5,0.8,0.4,0.8,1.3,0.7c-0.8,1.2-0.7-0.5-0.5,1.4c0.7,0,0.4,0.1,0.9-0.1l0.9-0.5c-0.8,1.4-1.2,1.8-1.2,3c1.3-0.1,0.4,0,1.3-0.3
		c-0.1,1.7-0.7,1.6,0.9,3c3.4,2.9,4.2-0.4,5.1-2.3l5.6,8.8c-0.9,1.4-0.3,0.7-0.9,0.8c-0.4,0,0.4-0.4-0.9,0.3c0.1,1,0.7,1.6,1.4,2.3
		c-0.7,0.4-0.4-0.4-0.7,0.4c0.8,0.8,0.3,0.8,1.6,0.3v-2.9c1.3,1.8,0,1.7,2.3,1.6v-1.6c0.5,0,2.6,0.9,1.6-2.5
		c-0.3-1.2-0.9-2.6-1.4-3.6c0.7-0.7,1-0.7,1.3-1.7c0.8-3.5-3-1.6-4.9-8.8c-0.8-2.9,2.2-2.2,1.2-4.7c-0.5-1.3,0,0-0.7-1
		c-0.5-0.9-0.8-1.6-0.7-2.5c1.3-0.3,2.2,0.4,2.9,1.2c1.2,1.6,0.8,3.6,0.3,4.8c-0.5,1.6,1,3.4,2.6,6c0.3,0.5,1.9,4,4.3,3.6l3.2-0.9
		c0.4,0.8,0.5,1.2,1.7,1.4l-0.4,0.7l-0.4,0.9c-2.2-0.1-0.5-1.3-2.7-0.4c-1.3,0.5,0.3,0.1-1.2,0.7c-0.9,0.3,0.3-0.7-1,0.1
		c0.7,1.4,0.5,0.5,1.3,0.9c0.5,0.3,3,2.5,2.9,4.5c-1.7-0.1-1-1.4-2.5-1.9c-1.7,2.5,0.7,4.5,1.6,7c-1,0.7-0.7-0.1-1.3,0.4
		c-0.9,0.8,1.2,0.1-0.7,1c-1.4-0.9,0-0.5-1.3-1.4c-1.4,0-3,0.9-3.9,1.9c-1-0.5-1.7-1.3-2.9-1.8l-1.9,0.9c-0.9-1.9-2.7-1.9-3-3.9
		c0.7,0.5,0.8,0.8,1.6,1.2c0.1-1.9-0.3-1-1.4-2.2c0.4-1.2,0-0.5,0.9-1.3l-0.8-1c-0.4-0.8,0,0.1-0.3-0.9c-0.3-0.9-0.3-1.2-0.7-2.1
		c-1.7,0.8-0.1,1-2.3,1.4v0.9c0.5-0.1,0.5-0.4,1.2-0.1l-1.2,0.8c0.1,1.7,0.9,2.6,1.7,4.2l0.5,1.3c0.3,0.8,0.5,1,0.3,1.8
		c-0.4,0.1-0.4-0.1-1.2-0.1l-0.8,0.1c-4.9,1.2-1.9,2.2-4.2,4.5c-0.8,0.8-1.4,1-2.9,1.2l-0.1,2.1c-1.8,0.8-2.1,1.6-2.6,1.7
		c-2.5-0.5,0-1.2-2.9-1.2c0.5,0.9,0.9,1.3,1,2.6c-2.3-0.3-1.6-0.4-2.6-0.8c-0.8-0.3-2.1,0-3.2,0.1c1,3,0.8,2.1,3.6,3.1
		c2.7,1,0.3,2.2,3.4,3.5c0.7,2.6,0.3,4.5,0.1,7.4c-3.4,0.1-6.9-1.3-9.1-1.6c-2.6-0.3-1.3-1.4-3.4-0.7l-2.2,0.8
		c0,0.3,1.7,2.7,0.9,6.9c-0.1,1-0.1,1.7-0.8,1.9c-1.2,2.7,0.1,2.5,0.5,3.8c0.1,0.9-0.3,2.1-0.4,2.7c0.3,0,1.7,0.4,1.8,0.4
		c1.4,0.3,1.3-0.1,2.1,0.1c1.4,0.4,1,1.8,2.1,2.9c0.9,0.5,1.2-0.1,2.7-0.8c2.9-1,3.2,1.4,5.3-0.7c1.2-1,0.5-0.4,1.3-0.9
		c0.5-0.4,0.7-0.8,1.2-1.3c0.4-0.5,0.7-0.7,1.2-1.2c-0.7-1-1.3-1.8-0.4-3l1.8-2.7c1.7-0.3,1.6,0.3,2.9-0.9c2.1-1.9-1.2-3.2,1.2-4.2
		c1.8-0.8,3.4,1.3,4.4,1.2l2.9-1.8c0.8-0.8-0.7,0,0.8-1c2.2,0.8,2.6,2.9,3.4,4.4c0.8,1.8,0.7,1,1.8,2.2c0.8,0.9,0.7,1.7,1.7,2.3
		c1.2,0.8,0.4-0.3,2.1,1.6l1.8,2.2c2.7,3.5,0.3,3.8,1.2,5.3c0.8-0.5,0.7-0.8,1-1.6c0,0,0-0.1,0-0.3l0.7-1.2c-0.8-1.3-1-0.9-0.7-2.9
		c1.6,0.5,0.7,1.2,2.2,1.7c0.5-1.3-0.8-2.3-1.4-3c-1.3-1.2-2.5-1-1.9-2.6c-3.4-0.7-3.2-3.2-3.9-4.4c-1.6-2.6-2.1-1.2-2.6-3.6
		l-0.3-1.9c1.4-0.5,0-0.3,1.6-0.4l0.8,2.2c0.9-0.4-0.1,0,0.9-1.3l1.3,3.4c0.8,1.4,1.6,1.7,2.6,2.7c0.5,0.5,0.3,0.3,0.8,0.9
		c1,1.3,2.9,1.4,3.1,3.6c0.3,1.4-0.3,1.8,0.1,3.2c0.3,0.8,0.9,1.2,1.3,1.9c0.7,1.6,0.3,2.7,2.2,3.6c-0.7,0.9-0.9,1-0.1,3.1
		c0.7,1.2,1.6,1.6,2.3,1.8c0.1-0.7,0-2.9-0.7-3.6l-0.1-0.1c-0.1-0.1-0.1-0.1-0.3-0.1c0-0.1-0.1-0.1-0.1-0.3c-0.4-0.4-0.3,0-0.4-0.5
		c0.9,0.1,1.6,0.8,2.1,1.8c1.7-1.8-0.3-2.9-0.7-3.2c-1.3-1.4,0.3,0.4-0.5-1.4c-0.5-1.3-0.9-0.7-0.8-2.1c1,0.7,0.3,0.7,1.6,1
		c1.2-1.6-1.2-1,0.7-2.1c0.9-0.5,1.2,0.4,2.5,1c0.8-0.4,1.9-1.8,2.6-0.4c0.5,1.6-1.7,0.9-3.1,0.8l0.7,2.6c0.7,1.4,0.7,1.7-0.1,2.7
		c0.8,0.9,0.8,0.3,1.2,1.4c0,0.3,0.4,2.2,0.4,2.6c3.1,1.3,0.3,1,2.7,1.9c0.4-0.7,0-0.8,0.7-1.7c0.5,0.3,0.4,0.1,0.7,0.3l1.2,2.1
		c0-0.1,0.1,0,0.1,0.1c2.1-1.3-0.8-1.8,2.6-1.4c-0.7,2.7-0.1,4.7-0.5,7.7c-0.3,1.2-0.4,2.3-0.5,3.4c-0.4,1.8-0.4,1.8-1.6,2.3
		c-2.1-0.7,0-0.1-0.9-0.9c-0.1-0.1-0.1-0.5-0.9-0.4c-1.2,0.4-0.4,0.8-1.8,1.6c-1.7-1-0.8-1.3-2.5-2.1c-1-0.7-0.1,0.5-2.2-1.3
		c-1-0.9-0.9-0.3-1.8-1.4c-0.8-1.2,0.7,0-0.7-1c-0.4-0.3-0.7-0.4-1.2-0.4c-1-0.1-1.8,0.4-2.3,0.9c-1,2.6,0.9,2.5-1.3,4.5
		c-1.8-0.4-0.9-1.4-3.4-2.3c-2.3-1-1.8-1-1.9-3.4c-1.2-0.5-0.4-0.3-1.2-0.7c-3-1.7-1.7-0.4-3.1-1c-0.7-0.4-1-1.2-2.7-2.3
		c-2.3-1.7-0.3-1.8,0.5-3.5c0.5-1.4-0.1-1.4-0.9-2.6l1-1.9c-1.2-0.7-0.1,0.4-1-0.3c-0.5-0.5,0-0.3-0.8-1c-1.9,0-1.2,0.5-2.6,0.4
		c-0.9,0-1-0.4-2.7-0.4c-1.2-0.1-1.9,0.3-2.7,0c-2.3-0.5-5.3-1-8.3,0.1c-6,2.6-3.2,2.6-6.5,1.6c-0.9-0.3-1.2-0.3-1.9-0.4
		c-2.7-0.3-1.4-1-2.7-2.1l-0.9,1c-0.3,0.4-0.3,0.7-0.5,1.2C276.6,144.3,276.2,144.7,275.6,145.6z"/>
	<path class="st0" d="M180.5,332.6c-31.3-0.9-58.2-11.7-80.5-32.6c32.2-18.2,74.2-28.3,126.1-30.3c71.4,3.6,119.1-11.8,143-46.6
		C341,294.2,278.2,330.6,180.5,332.6z"/>
</g>
</svg>
