<?xml version="1.0" encoding="utf-8"?>
<!-- Generator: Adobe Illustrator 24.0.1, SVG Export Plug-In . SVG Version: 6.00 Build 0)  -->
<svg version="1.1" id="Layer_1" xmlns="http://www.w3.org/2000/svg" xmlns:xlink="http://www.w3.org/1999/xlink" x="0px" y="0px"
	 viewBox="0 0 250 211" style="enable-background:new 0 0 250 211;" xml:space="preserve">
<style type="text/css">
	.st0{fill:#D8FFFF;}
	.st1{fill:#ABBEA2;}
	.st2{fill:#FF8E66;}
	.st3{fill:#00677C;}
	.st4{fill:#6F224E;}
	.st5{fill:#381905;}
	.st6{fill:#FFFFFF;}
	.st7{fill:#FFE1D4;}
	.st8{fill:#FFB878;}
</style>
<g>
	<g>
		<path class="st0" d="M71.31,202.25c-11.52-0.97-23.72-3.35-31.98-11.44c-8.26-8.08-10.05-23.54-0.86-30.54
			c4.32-3.29,10.83-4.95,12.11-10.22c1.42-5.82-4.76-10.4-9.99-13.34c-11.02-6.21-21.86-13.36-29.52-23.43
			C3.42,103.2-0.63,89.67,3.2,77.62c4.25-13.34,16.83-22.09,29.14-28.76c17.98-9.74,37.07-17.24,56.11-24.71
			c25.04-9.83,50.47-19.76,77.23-22.41c13.05-1.29,26.63-0.75,38.65,4.49c12.02,5.24,22.26,15.83,24.43,28.76
			c1.89,11.26-2.4,22.76-8.68,32.3c-5.54,8.41-13.03,18.1-9.13,27.38c3.43,8.17,13.61,10.51,21,15.41
			c11.66,7.74,16.62,23.26,14.2,37.04c-2.42,13.78-11.17,25.81-21.86,34.85s-23.29,15.46-35.76,21.8"/>
	</g>
	<g>
		<path class="st1" d="M208.48,203.7c0,7.55-35.73,5.99-81.7,5.99s-84.76,1.56-84.76-5.99c0-7.55,37.26-7.79,83.23-7.79
			S208.48,196.15,208.48,203.7z"/>
	</g>
	<g>
		<g>
			<g>
				<g>
					<g>
						<g>
							<g>
								<g>
									<g>
										<g>
											<g>
												<path class="st2" d="M164.37,40.53c-6.05-1.18-12.53,0.47-18.53,1.27c-3.86,0.51-24.34-0.07-23.99,5.17
													c0.07,1.06,0.75,2,1.61,2.62c0.86,0.62,1.89,0.96,2.91,1.25c5.04,1.41,9.98,1.02,15.08,1.4
													c5.83,0.43,11.79-0.04,17.65,0.25c2.21,0.11,4.49,0.4,6.57-0.32c2.62-0.91,4.41-3.31,5.19-5.89
													c0.92-3.03-1.88-4.42-4.5-5.24C165.69,40.83,165.03,40.66,164.37,40.53z"/>
											</g>
										</g>
									</g>
								</g>
							</g>
						</g>
					</g>
				</g>
			</g>
			<g>
				<path class="st2" d="M94.32,43.8c-0.14,0.37-0.08,0.87,0.2,1.16c0.28,0.29,0.67,0.48,0.88,0.84c0.09,0.15,0.13,0.34,0.08,0.51
					c-0.13,0.42-0.76,0.49-1.23,0.55l-0.01-0.04c-2.9,0.47-8.03,1.47-8.15,2.09c-0.31,1.71,6.1-0.38,6.42,0.04
					c0.33,0.42-7.34,1.19-7,2.3c0.07,0.23,0.57,0.21,0.75,0.22c0.56,0.01,1.13-0.05,1.68-0.12c1.35-0.17,2.66-0.55,4.01-0.71
					c0.28-0.03,0.55-0.06,0.83-0.08c0.12-0.01,0.36-0.01,0.37,0.15c0.01,0.15-0.28,0.32-0.39,0.37c-0.17,0.07-0.37,0.1-0.55,0.13
					c-1.54,0.2-3.08,0.41-4.63,0.61c-0.31,0.04-0.68,0.13-0.79,0.42c-0.08,0.21,0.02,0.46,0.2,0.58c0.31,0.22,0.9,0.08,1.26,0.06
					c0.43-0.02,0.85-0.05,1.28-0.08c0.91-0.07,1.82-0.14,2.73-0.21c0.34-0.03,0.68-0.11,1.02-0.13c0.11-0.01,1.11,0.07,0.73,0.38
					c-0.06,0.05-0.13,0.06-0.21,0.07c-1.15,0.19-2.32,0.33-3.48,0.41c-0.24,0.02-0.54,0.07-0.62,0.3c-0.06,0.17,0.05,0.36,0.2,0.46
					c0.15,0.1,0.34,0.12,0.52,0.14c0.52,0.05,1.03,0.06,1.55,0.08c1.05,0.03,2.11,0.05,3.14-0.14c1.72-0.32,2.94-1.17,4.4-1.89
					c0.97,0.11,2.01,0.04,2.82,0.03c8.08-0.08,15.9,1.8,23.87-0.63c1-0.3,2.02-0.7,2.72-1.47c1.92-2.13-0.79-6.31-3.19-6.88
					c-1.62-0.38-4,0.76-5.62,1.1c-4.82,1-9.69,1.74-14.58,2.23c-0.89,0.09-2.45-0.02-4.01,0.05c-0.34-0.12-0.69-0.19-1.01-0.35
					c-0.38-0.19-0.46-0.45-0.74-0.72c-0.56-0.54-1.41-0.99-2.16-1.18c-0.58-0.15-1.19-0.26-1.69-0.6c-0.34-0.23-0.68-0.59-1.09-0.52
					C94.61,43.37,94.41,43.57,94.32,43.8z"/>
			</g>
			<g>
				<g>
					<path class="st3" d="M165.9,38.31c-3.29-0.35-6.78,0.19-10.24,0.57c-3.63,0.41-11.91-0.11-14.92,2.25
						c-1.33,1.04-0.83,5.09-0.79,6.51c0.09,3.28-0.29,4.62,2.51,5.52c8.49,2.73,20.3,0.32,28.85-1.29c1.48-0.28,3.04-0.63,4.08-1.72
						c1.08-1.12,1.36-2.86,0.97-4.37c-0.39-1.51-1.35-2.81-2.48-3.89C171.48,39.58,168.76,38.61,165.9,38.31z"/>
				</g>
			</g>
		</g>
		<g>
			<g>
				<g>
					<g>
						<g>
							<g>
								<g>
									<g>
										<g>
											<g>
												<path class="st2" d="M172.09,40.53c6.05-1.18,12.53,0.47,18.53,1.27c3.86,0.51,24.34-0.07,23.99,5.17
													c-0.07,1.06-0.75,2-1.61,2.62c-0.86,0.62-1.89,0.96-2.91,1.25c-5.04,1.41-9.98,1.02-15.08,1.4
													c-5.83,0.43-11.79-0.04-17.65,0.25c-2.21,0.11-4.49,0.4-6.57-0.32c-2.62-0.91-4.41-3.31-5.19-5.89
													c-0.92-3.03,1.88-4.42,4.5-5.24C170.76,40.83,171.42,40.66,172.09,40.53z"/>
											</g>
										</g>
									</g>
								</g>
							</g>
						</g>
					</g>
				</g>
			</g>
			<g>
				<path class="st2" d="M242.14,43.8c0.14,0.37,0.08,0.87-0.2,1.16c-0.28,0.29-0.67,0.48-0.88,0.84c-0.09,0.15-0.13,0.34-0.08,0.51
					c0.13,0.42,0.76,0.49,1.23,0.55l0.01-0.04c2.9,0.47,8.03,1.47,8.15,2.09c0.31,1.71-6.1-0.38-6.42,0.04
					c-0.32,0.42,7.34,1.19,7,2.3c-0.07,0.23-0.57,0.21-0.75,0.22c-0.56,0.01-1.13-0.05-1.68-0.12c-1.35-0.17-2.66-0.55-4.01-0.71
					c-0.28-0.03-0.55-0.06-0.83-0.08c-0.12-0.01-0.36-0.01-0.37,0.15c-0.01,0.15,0.28,0.32,0.39,0.37c0.17,0.07,0.37,0.1,0.55,0.13
					c1.54,0.2,3.08,0.41,4.63,0.61c0.31,0.04,0.68,0.13,0.79,0.42c0.08,0.21-0.02,0.46-0.2,0.58c-0.31,0.22-0.9,0.08-1.26,0.06
					c-0.43-0.02-0.85-0.05-1.28-0.08c-0.91-0.07-1.82-0.14-2.73-0.21c-0.34-0.03-0.68-0.11-1.02-0.13
					c-0.11-0.01-1.11,0.07-0.73,0.38c0.06,0.05,0.13,0.06,0.21,0.07c1.15,0.19,2.32,0.33,3.48,0.41c0.24,0.02,0.54,0.07,0.62,0.3
					c0.06,0.17-0.05,0.36-0.2,0.46c-0.15,0.1-0.34,0.12-0.52,0.14c-0.52,0.05-1.03,0.06-1.55,0.08c-1.05,0.03-2.11,0.05-3.14-0.14
					c-1.72-0.32-2.94-1.17-4.4-1.89c-0.97,0.11-2.01,0.04-2.82,0.03c-8.08-0.08-15.9,1.8-23.87-0.63c-1-0.3-2.02-0.7-2.72-1.47
					c-1.92-2.13,0.79-6.31,3.19-6.88c1.62-0.38,4,0.76,5.62,1.1c4.82,1,9.69,1.74,14.58,2.23c0.89,0.09,2.45-0.02,4.01,0.05
					c0.34-0.12,0.69-0.19,1.01-0.35c0.38-0.19,0.46-0.45,0.74-0.72c0.56-0.54,1.41-0.99,2.16-1.18c0.58-0.15,1.19-0.26,1.69-0.6
					c0.34-0.23,0.68-0.59,1.09-0.52C241.85,43.37,242.05,43.57,242.14,43.8z"/>
			</g>
			<g>
				<g>
					<path class="st3" d="M170.55,38.31c3.29-0.35,6.78,0.19,10.24,0.57c3.63,0.41,11.91-0.11,14.92,2.25
						c1.33,1.04,0.83,5.09,0.79,6.51c-0.09,3.28,0.29,4.62-2.51,5.52c-8.49,2.73-20.3,0.32-28.85-1.29
						c-1.48-0.28-3.04-0.63-4.08-1.72c-1.08-1.12-1.36-2.86-0.97-4.37c0.39-1.51,1.35-2.81,2.48-3.89
						C164.98,39.58,167.69,38.61,170.55,38.31z"/>
				</g>
			</g>
		</g>
		<g>
			<g>
				<g>
					<g>
						<g>
							<g>
								<path class="st2" d="M190.35,176.84c-0.39,2.91-0.87,5.81-1.3,8.72c-0.33,2.24-0.64,4.48-0.84,6.74
									c-0.29,3.23-0.83,6.32-0.6,9.56c0.04,0.56,0.09,1.16-0.17,1.66c-0.01,0.01-0.01,0.03-0.02,0.04
									c-0.54,0.82-4.68,0.93-4.74,0.54c-0.57-4.15-1.12-8.31-1.65-12.47c-0.37-2.91-1.28-5.44-1.81-8.27c-0.5-2.7-0.81-5.2-1-7.57
									L190.35,176.84z"/>
							</g>
						</g>
					</g>
				</g>
				<g>
					<path class="st4" d="M194.03,170.75c0.23-5.06,0.26-10.12,0.08-15.18c-0.17-4.73-0.29-3.52,0.23-8.18
						c0.57-5.07-1.13-10.77-0.68-15.85c0.45-5.17,1.28-10.38,1.3-15.58c0.02-4.79-3.39-9.41-5.54-13.7c-1.07-2.14-2.62-5.83-5-6.86
						c-2.53-1.09-6.17,0.71-8.98,0.47c-1.14-0.1-2.28-0.29-3.4-0.52l-3.27,33.87c2.46,0.61,3.43,13.74,3.64,15.22
						c0.54,3.72,0.5,1.55,1.03,5.27c0.75,5.2,0.55,4.62,1.41,9.79c1.3,7.55,1.21,15.21,1.44,22.85c0.07,2.17,0.24,4.59,1.82,6.07
						c0.65,0.61,1.53,1.05,1.85,1.88c0.4,1.05-0.18,2.52,0.73,3.19c0.46,0.34,1.09,0.27,1.65,0.19c1.65-0.25,3.3-0.5,4.96-0.74
						c0.75-0.11,1.57-0.26,2.09-0.81c0.93-0.99,0.41-2.58,0.46-3.94c0.06-1.85,1.25-3.43,2.09-5.08c1.04-2.04,1.5-4.26,1.52-6.54
						C193.48,174.6,193.93,172.71,194.03,170.75z"/>
				</g>
				<g>
					<g>
						<g>
							<g>
								<g>
									<path class="st5" d="M193.57,204.42c0,0-7.45-7.33-7.97-7.38c-0.52-0.05-1.6,0.46-1.44,1.15c0.15,0.69-1.02,3.04-1.39,3.05
										c-0.37,0.01-0.57-1.16,0.4-1.53c0,0-1.28,0.38-1.4,1.44c-0.11,1.06,0.45,2.36,0.45,2.36l0.78,2.23c0,0,6.64,2.45,6.75,2.39
										c0.11-0.06,3.68-2.82,3.68-2.82L193.57,204.42z"/>
								</g>
							</g>
						</g>
						<g>
							<g>
								<g>
									<path class="st5" d="M197.71,205.79c0.02-0.15-1.78-0.55-2.48-0.83c-0.69-0.28-2.94-1.45-3.16-1.52
										c-0.22-0.06-7.29-5.46-7.41-5.34c-0.12,0.12-0.55,1.57-0.44,1.83c0.11,0.26,3.12,3.7,4.94,4.48
										c-0.1,0.17-1.39,1.04-0.9,2.7C188.76,208.77,197.55,207.25,197.71,205.79z"/>
								</g>
							</g>
						</g>
						<g>
							<g>
								<g>
									<path class="st5" d="M193.57,204.42c0,0-5.82-6.71-6.24-6.58c-0.42,0.13-0.47,0.58-0.39,0.71
										C187.02,198.68,193.57,204.42,193.57,204.42z"/>
								</g>
							</g>
						</g>
						<g>
							<g>
								<g>
									<path class="st5" d="M183.04,205.47c0,0-0.98-2.21-1.12-2.84c-0.15-0.63-0.39,2.43,0.32,3.25
										C182.94,206.7,183.04,205.47,183.04,205.47z"/>
								</g>
							</g>
						</g>
						<g>
							<g>
								<g>
									<path class="st6" d="M196.92,205.44c-0.08-0.01,0.47,0.09,0.28,0.24c-0.18,0.14-7.13,1.37-9.28,1
										c-2.12-0.37-0.93-0.09-2.96-0.61c-2-0.51-3.01-0.37-3.15-0.72c0,0,0.2,1.78,0.44,1.89c1.49,0.62,3.01,0.75,4.45,1.47
										c1.83,0.92,3.91,0.78,6.02,0.52c0.63-0.08,5.87-0.98,5.91-1.48c0,0-0.05-0.84-0.11-1.1
										C198.45,206.38,198.15,205.58,196.92,205.44z"/>
								</g>
							</g>
						</g>
					</g>
					<g>
						<g>
							<g>
								<path class="st6" d="M191.87,203.29c0.09,0.04,0.21,0.08,0.27-0.01c0.03-0.05,0.02-0.14-0.01-0.19
									c-0.03-0.06-0.08-0.1-0.14-0.13c-0.31-0.2-0.67-0.28-1.02-0.3c-0.35-0.01-0.7,0.04-1.04,0.09
									c-0.13,0.02-0.27,0.04-0.39,0.13c-0.16,0.12-0.24,0.39-0.07,0.55c0.15,0.13,0.25,0.02,0.37-0.08
									c0.35-0.26,0.85-0.3,1.26-0.27C191.37,203.11,191.62,203.18,191.87,203.29z"/>
							</g>
						</g>
					</g>
					<g>
						<g>
							<g>
								<path class="st6" d="M191.19,202.43c0.09,0.02,0.22,0.04,0.26-0.06c0.03-0.06,0.01-0.14-0.03-0.19
									c-0.04-0.05-0.1-0.08-0.15-0.1c-0.33-0.14-0.69-0.16-1.04-0.1c-0.34,0.05-0.68,0.17-1.01,0.29
									c-0.13,0.05-0.26,0.09-0.36,0.2c-0.14,0.15-0.19,0.44,0.01,0.56c0.16,0.1,0.24-0.03,0.35-0.14c0.31-0.32,0.79-0.46,1.2-0.5
									C190.68,202.35,190.94,202.37,191.19,202.43z"/>
							</g>
						</g>
					</g>
					<g>
						<g>
							<g>
								<path class="st6" d="M190.61,201.64c0.09,0.02,0.21,0.04,0.26-0.06c0.03-0.06,0.01-0.14-0.03-0.19
									c-0.04-0.05-0.1-0.08-0.15-0.1c-0.33-0.14-0.69-0.15-1.04-0.1c-0.34,0.05-0.67,0.17-1,0.29c-0.13,0.05-0.26,0.1-0.36,0.2
									c-0.14,0.15-0.19,0.44,0.01,0.56c0.16,0.1,0.24-0.03,0.35-0.15c0.31-0.32,0.79-0.46,1.2-0.51
									C190.1,201.56,190.35,201.58,190.61,201.64z"/>
							</g>
						</g>
					</g>
					<g>
						<g>
							<g>
								<path class="st6" d="M189.89,200.82c0.09,0.02,0.21,0.02,0.25-0.08c0.02-0.06,0-0.14-0.04-0.19
									c-0.04-0.05-0.1-0.07-0.15-0.09c-0.34-0.12-0.69-0.11-1.03-0.04c-0.34,0.07-0.66,0.21-0.98,0.35
									c-0.13,0.05-0.25,0.11-0.35,0.22c-0.13,0.16-0.17,0.45,0.03,0.56c0.16,0.09,0.24-0.04,0.34-0.17
									c0.29-0.34,0.77-0.51,1.17-0.58C189.37,200.77,189.63,200.77,189.89,200.82z"/>
							</g>
						</g>
					</g>
					<g>
						<g>
							<g>
								<path class="st6" d="M189.33,200.15c0.09,0.02,0.21,0.02,0.25-0.08c0.02-0.06,0-0.14-0.04-0.19
									c-0.04-0.05-0.1-0.07-0.15-0.09c-0.33-0.12-0.69-0.11-1.03-0.04c-0.34,0.07-0.66,0.21-0.98,0.35
									c-0.12,0.05-0.25,0.11-0.35,0.22c-0.13,0.16-0.17,0.45,0.03,0.56c0.16,0.09,0.24-0.04,0.34-0.17
									c0.29-0.34,0.76-0.51,1.16-0.58C188.82,200.11,189.08,200.11,189.33,200.15z"/>
							</g>
						</g>
					</g>
					<g>
						<g>
							<g>
								<path class="st6" d="M188.5,199.25c0.09,0,0.21-0.01,0.24-0.12c0.02-0.07-0.02-0.14-0.06-0.18
									c-0.05-0.04-0.1-0.06-0.16-0.07c-0.34-0.06-0.69,0.01-1.02,0.14c-0.32,0.13-0.62,0.32-0.92,0.51
									c-0.12,0.07-0.24,0.15-0.32,0.28c-0.11,0.18-0.11,0.47,0.1,0.55c0.17,0.06,0.23-0.08,0.32-0.22
									c0.25-0.39,0.69-0.64,1.08-0.77C187.99,199.29,188.25,199.25,188.5,199.25z"/>
							</g>
						</g>
					</g>
					<g>
						<g>
							<g>
								<path class="st6" d="M187.82,198.73c0.09,0,0.21-0.01,0.24-0.12c0.02-0.07-0.02-0.14-0.06-0.18
									c-0.05-0.04-0.1-0.06-0.16-0.07c-0.34-0.06-0.69,0.01-1.01,0.14c-0.32,0.13-0.62,0.32-0.92,0.52
									c-0.12,0.07-0.23,0.15-0.31,0.28c-0.11,0.18-0.11,0.47,0.1,0.55c0.17,0.06,0.23-0.09,0.32-0.22
									c0.24-0.39,0.69-0.64,1.07-0.77C187.31,198.77,187.56,198.73,187.82,198.73z"/>
							</g>
						</g>
					</g>
				</g>
				<g>
					<g>
						<path class="st5" d="M192.71,114.08c0.07,0.01,0.13-0.04,0.15-0.1c0.03-0.08-0.02-0.16-0.1-0.19c-2.62-0.86-4.78-3.13-5.5-5.8
							c-0.02-0.08-0.1-0.13-0.18-0.1c-0.08,0.02-0.12,0.1-0.1,0.18c0.74,2.76,2.98,5.11,5.69,6
							C192.68,114.08,192.69,114.08,192.71,114.08z"/>
					</g>
				</g>
			</g>
			<g>
				<g>
					<g>
						<g>
							<g>
								<path class="st2" d="M148.14,176.34c0.45,2.9,0.99,5.79,1.48,8.69c0.38,2.23,0.73,4.46,0.98,6.72
									c0.35,3.22,0.97,6.3,0.81,9.55c-0.03,0.56-0.06,1.16,0.21,1.66c0.01,0.01,0.01,0.03,0.02,0.04c0.56,0.81,4.7,0.83,4.75,0.44
									c0.48-4.17,0.95-8.33,1.39-12.5c0.31-2.92,1.17-5.46,1.64-8.3c0.44-2.71,0.7-5.21,0.84-7.59L148.14,176.34z"/>
							</g>
						</g>
					</g>
				</g>
				<g>
					<path class="st4" d="M144.33,170.32c-0.34-5.05-0.47-10.11-0.4-15.17c0.07-4.73,0.22-3.53-0.41-8.18
						c-0.68-5.06,0.9-10.8,0.35-15.86c-0.56-5.16-1.5-10.36-1.63-15.55c-0.12-4.79,3.2-9.48,5.25-13.82
						c1.03-2.16,2.5-5.89,4.85-6.96c2.5-1.14,6.18,0.58,8.99,0.28c1.14-0.12,13.61-1.38,14.73-1.63l-7.31,35.79
						c-2.44,0.66-3.19,12.86-3.37,14.34c-0.46,3.73-0.46,1.56-0.92,5.29c-0.64,5.22-0.45,4.63-1.2,9.82
						c-1.14,7.58-0.89,15.23-0.96,22.87c-0.02,2.17-0.14,4.59-1.7,6.11c-0.64,0.62-1.51,1.08-1.81,1.92
						c-0.38,1.06,0.23,2.52-0.66,3.2c-0.45,0.35-1.08,0.29-1.65,0.22c-1.66-0.21-3.31-0.43-4.97-0.64c-0.76-0.1-1.57-0.22-2.1-0.77
						c-0.96-0.97-0.47-2.57-0.54-3.93c-0.1-1.85-1.33-3.4-2.2-5.03c-1.08-2.02-1.59-4.23-1.66-6.51
						C144.96,174.16,144.46,172.28,144.33,170.32z"/>
				</g>
				<g>
					<g>
						<g>
							<g>
								<g>
									<path class="st5" d="M145.49,203.98c0,0,7.29-7.49,7.81-7.55c0.52-0.06,1.61,0.42,1.47,1.12c-0.14,0.7,1.08,3.02,1.45,3.02
										c0.37,0,0.55-1.17-0.44-1.52c0,0,1.29,0.35,1.43,1.41c0.14,1.05-0.4,2.37-0.4,2.37l-0.73,2.25c0,0-6.59,2.59-6.7,2.53
										s-3.74-2.74-3.74-2.74L145.49,203.98z"/>
								</g>
							</g>
						</g>
						<g>
							<g>
								<g>
									<path class="st5" d="M141.39,205.43c-0.02-0.15,1.77-0.59,2.46-0.88c0.68-0.29,2.91-1.51,3.12-1.58
										c0.21-0.07,7.17-5.62,7.3-5.49c0.12,0.12,0.58,1.55,0.48,1.82c-0.11,0.26-3.05,3.77-4.85,4.58
										c0.1,0.17,1.41,1.01,0.95,2.68C150.39,208.22,141.57,206.88,141.39,205.43z"/>
								</g>
							</g>
						</g>
						<g>
							<g>
								<g>
									<path class="st5" d="M145.49,203.98c0,0,5.67-6.83,6.1-6.71c0.42,0.12,0.48,0.57,0.41,0.7
										C151.92,198.1,145.49,203.98,145.49,203.98z"/>
								</g>
							</g>
						</g>
						<g>
							<g>
								<g>
									<path class="st5" d="M156.04,204.81c0,0,0.93-2.23,1.06-2.86c0.13-0.63,0.44,2.42-0.25,3.25
										C156.17,206.03,156.04,204.81,156.04,204.81z"/>
								</g>
							</g>
						</g>
						<g>
							<g>
								<g>
									<path class="st6" d="M142.17,205.06c0.08-0.01-0.47,0.1-0.28,0.24c0.19,0.14,7.16,1.22,9.3,0.8
										c2.11-0.42,0.93-0.11,2.95-0.68c1.99-0.56,3-0.43,3.13-0.79c0,0-0.16,1.79-0.4,1.9c-1.47,0.65-3,0.81-4.41,1.57
										c-1.81,0.96-3.89,0.86-6,0.64c-0.63-0.07-5.89-0.85-5.94-1.35c0,0,0.03-0.84,0.09-1.1
										C140.66,206.04,140.94,205.23,142.17,205.06z"/>
								</g>
							</g>
						</g>
					</g>
					<g>
						<g>
							<g>
								<path class="st6" d="M147.17,202.81c-0.09,0.04-0.21,0.08-0.27-0.01c-0.04-0.05-0.03-0.13,0-0.19
									c0.03-0.06,0.08-0.1,0.13-0.13c0.31-0.21,0.66-0.3,1.01-0.32c0.35-0.02,0.7,0.03,1.04,0.07c0.13,0.02,0.27,0.04,0.39,0.12
									c0.16,0.11,0.25,0.39,0.08,0.55c-0.14,0.13-0.25,0.02-0.37-0.07c-0.35-0.25-0.86-0.29-1.27-0.24
									C147.67,202.62,147.42,202.69,147.17,202.81z"/>
							</g>
						</g>
					</g>
					<g>
						<g>
							<g>
								<path class="st6" d="M147.83,201.94c-0.09,0.03-0.21,0.04-0.26-0.06c-0.03-0.06-0.01-0.14,0.03-0.19
									c0.04-0.05,0.09-0.08,0.15-0.11c0.33-0.15,0.69-0.17,1.04-0.13c0.35,0.05,0.68,0.16,1.01,0.27
									c0.13,0.04,0.26,0.09,0.36,0.19c0.14,0.14,0.2,0.43,0,0.56c-0.16,0.1-0.24-0.02-0.36-0.14c-0.31-0.32-0.8-0.45-1.21-0.48
									C148.34,201.85,148.08,201.87,147.83,201.94z"/>
							</g>
						</g>
					</g>
					<g>
						<g>
							<g>
								<path class="st6" d="M148.4,201.14c-0.09,0.02-0.21,0.04-0.26-0.06c-0.03-0.06-0.01-0.14,0.03-0.19
									c0.04-0.05,0.09-0.08,0.15-0.1c0.33-0.15,0.69-0.17,1.03-0.12c0.34,0.05,0.68,0.16,1.01,0.27c0.13,0.04,0.26,0.09,0.36,0.19
									c0.14,0.14,0.2,0.43,0,0.56c-0.16,0.1-0.24-0.02-0.35-0.14c-0.31-0.32-0.8-0.45-1.21-0.48
									C148.91,201.05,148.65,201.07,148.4,201.14z"/>
							</g>
						</g>
					</g>
					<g>
						<g>
							<g>
								<path class="st6" d="M149.1,200.3c-0.09,0.02-0.21,0.03-0.26-0.07c-0.03-0.06,0-0.14,0.04-0.19c0.04-0.05,0.1-0.07,0.15-0.1
									c0.33-0.13,0.69-0.13,1.03-0.06c0.34,0.07,0.67,0.2,0.99,0.33c0.13,0.05,0.26,0.11,0.35,0.21c0.14,0.15,0.18,0.44-0.02,0.56
									c-0.16,0.09-0.24-0.04-0.35-0.16c-0.3-0.34-0.78-0.49-1.18-0.55C149.61,200.24,149.36,200.25,149.1,200.3z"/>
							</g>
						</g>
					</g>
					<g>
						<g>
							<g>
								<path class="st6" d="M149.65,199.62c-0.09,0.02-0.21,0.03-0.25-0.07c-0.02-0.06,0-0.14,0.04-0.19
									c0.04-0.05,0.1-0.07,0.15-0.1c0.33-0.13,0.69-0.13,1.03-0.06c0.34,0.07,0.66,0.2,0.99,0.33c0.13,0.05,0.26,0.11,0.35,0.22
									c0.14,0.15,0.18,0.44-0.02,0.56c-0.16,0.09-0.24-0.04-0.35-0.16c-0.3-0.34-0.78-0.5-1.18-0.55
									C150.15,199.56,149.9,199.57,149.65,199.62z"/>
							</g>
						</g>
					</g>
					<g>
						<g>
							<g>
								<path class="st6" d="M150.46,198.7c-0.09,0-0.21-0.01-0.24-0.11c-0.02-0.06,0.01-0.14,0.06-0.18
									c0.05-0.04,0.1-0.06,0.16-0.07c0.34-0.07,0.69-0.01,1.02,0.12c0.33,0.12,0.63,0.31,0.93,0.5c0.12,0.07,0.24,0.15,0.32,0.27
									c0.12,0.17,0.12,0.47-0.08,0.55c-0.17,0.07-0.23-0.08-0.32-0.22c-0.25-0.38-0.71-0.62-1.09-0.75
									C150.96,198.73,150.71,198.7,150.46,198.7z"/>
							</g>
						</g>
					</g>
					<g>
						<g>
							<g>
								<path class="st6" d="M151.13,198.17c-0.09,0-0.21-0.01-0.24-0.11c-0.02-0.07,0.01-0.14,0.06-0.18
									c0.05-0.04,0.1-0.06,0.16-0.07c0.34-0.07,0.69-0.01,1.01,0.12c0.32,0.12,0.63,0.31,0.93,0.5c0.12,0.07,0.24,0.15,0.32,0.27
									c0.11,0.17,0.12,0.47-0.08,0.55c-0.17,0.07-0.23-0.08-0.32-0.22c-0.25-0.38-0.7-0.62-1.09-0.75
									C151.63,198.2,151.38,198.16,151.13,198.17z"/>
							</g>
						</g>
					</g>
				</g>
				<g>
					<g>
						<path class="st5" d="M144.46,113.64c-0.07,0.01-0.13-0.03-0.16-0.1c-0.03-0.08,0.01-0.16,0.09-0.19
							c2.6-0.91,4.71-3.23,5.38-5.91c0.02-0.08,0.1-0.13,0.18-0.11c0.08,0.02,0.13,0.1,0.11,0.18c-0.69,2.77-2.87,5.17-5.56,6.12
							C144.48,113.63,144.47,113.64,144.46,113.64z"/>
					</g>
				</g>
			</g>
			<g>
				<g>
					<path class="st3" d="M149,70.37c-0.03-0.71-0.19-1.43-0.34-2.12c-0.84-4.01-1.07-8.13-0.71-12.21
						c0.31-3.57,0.81-7.83,3.54-10.46c2.27-2.19,5.36-3.3,8.42-4.05c5.7-1.4,11.66-1.72,17.48-0.95c5.66,0.75,8.48,5.23,8.98,10.66
						c0.34,3.68-0.28,7.37-0.46,11.07c-0.36,7.61,1.25,15.07,2.43,22.56c0.34,2.15,0.68,4.33,0.42,6.49
						c-0.24,1.97-0.97,3.95-0.57,5.9c0.21,1.03,0.74,2.01,0.71,3.06c-0.05,1.6-1.37,2.85-2.7,3.73c-4.08,2.71-8.12,2.93-12.82,3.01
						c-4.73,0.08-9.41-0.28-14.13-0.99c-2.32-0.35-4.71-0.85-6.63-2.21c-4.11-2.92-2.95-9.12-3.19-13.48
						c-0.21-3.99-0.9-7.94-2.04-11.77c-0.45-1.52-0.99-2.65-0.24-4.13C147.89,73.01,149.08,72.17,149,70.37z"/>
				</g>
			</g>
			<g>
				<g>
					<g>
						<path class="st2" d="M161.93,29.49c-0.03-0.45-0.06-0.9-0.21-1.33c-0.15-0.42-0.43-0.82-0.83-1.01
							c-0.41-0.19-0.95-0.13-1.23,0.22c-0.24,0.29-0.25,0.7-0.21,1.07c0.16,1.22,1.05,3.79,2.73,2.98"/>
					</g>
				</g>
				<g>
					<g>
						<g>
							<g>
								<g>
									<g>
										<g>
											<g>
												<g>
													<g>
														<g>
															<g>
																<g>
																	<g>
																		<g>
																			<path class="st2" d="M171.27,41.03c-1.81-2.83-1.39-7.67-1.85-10.73c0.02,0.13-1.24,0.88-1.36,0.96
																				c-0.44,0.31-0.88,0.62-1.33,0.94c-0.34,0.24-1.07,0.56-1.29,0.9c-1.02,1.6,0.19,3.45,0.42,5.07
																				c0.2,1.41,0.78,2.85,0.35,4.28c-0.31,1.04-1.34,1.73-1.44,2.82c-0.08,0.77,0.27,1.57,0.88,2.04
																				c0.94,0.73,2.27,0.62,3.45,0.47c0.97-0.12,1.95-0.24,2.83-0.65c0.88-0.41,1.67-1.15,1.88-2.1
																				C174.21,43.23,172.09,42.32,171.27,41.03z"/>
																		</g>
																	</g>
																</g>
															</g>
														</g>
													</g>
												</g>
											</g>
										</g>
									</g>
								</g>
							</g>
						</g>
					</g>
				</g>
				<g>
					<g>
						<g>
							<g>
								<path class="st2" d="M176.32,31.21c0.83-0.5,1.57-1.15,2.17-1.91c0.15-0.19,0.29-0.38,0.5-0.5
									c0.21-0.12,0.49-0.12,0.65,0.05c0.1,0.11,0.13,0.26,0.15,0.41c0.11,0.71,0.22,1.44,0.04,2.13
									c-0.18,0.69-0.72,1.34-1.44,1.42c-0.28,0.03-0.57-0.03-0.86-0.02c-0.29,0-0.6,0.08-0.76,0.32"/>
							</g>
						</g>
					</g>
					<g>
						<g>
							<g>
								<g>
									<g>
										<g>
											<g>
												<g>
													<g>
														<g>
															<path class="st2" d="M177.13,22.99c-0.5-0.87-1.17-1.65-2.03-2.32c-2.61-2.04-6.42-2.38-9.35-0.84
																c-1.73,0.91-3.1,2.45-3.88,4.24c-0.41,0.94-0.61,1.9-0.72,2.92c-0.11,1-0.45,1.98-0.5,2.99
																c-0.12,2.32,0.18,4.95,1.76,6.72c1.47,1.64,3.53,2.77,5.72,3.03c3.05,0.37,7.21-1.05,8.56-4.03
																C178.4,31.9,179.29,26.71,177.13,22.99z"/>
														</g>
													</g>
												</g>
											</g>
										</g>
									</g>
								</g>
							</g>
						</g>
					</g>
					<g>
						<g>
							<path class="st7" d="M173.47,28.44c-0.18,0.01-0.37,0.03-0.53,0.12s-0.29,0.25-0.3,0.43c-0.01,0.17,0.09,0.32,0.21,0.43
								c0.13,0.11,0.28,0.18,0.43,0.24c0.2,0.09,0.41,0.18,0.62,0.17c0.21,0,0.41-0.1,0.62-0.13c0.53-0.09,2.06,0.07,1.37-0.95
								c-0.19-0.28-0.48-0.42-0.82-0.41C174.55,28.36,174,28.42,173.47,28.44z"/>
						</g>
					</g>
					<g>
						<g>
							<path class="st7" d="M166.01,27.36c0.18,0.01,0.37,0.03,0.53,0.12c0.16,0.09,0.29,0.25,0.3,0.43
								c0.01,0.17-0.09,0.32-0.22,0.43c-0.13,0.11-0.28,0.17-0.43,0.24c-0.2,0.09-0.41,0.17-0.62,0.17c-0.21,0-0.41-0.1-0.62-0.14
								c-0.53-0.09-2.06,0.06-1.36-0.96c0.19-0.28,0.49-0.41,0.82-0.4C164.93,27.27,165.47,27.34,166.01,27.36z"/>
						</g>
					</g>
					<g>
						<g>
							<path class="st7" d="M160.13,34.47c-0.01-0.05-0.02-0.09-0.04-0.14c-0.14-0.51-0.63-0.93-0.69-1.45
								c-0.06-0.6,0.57-0.99,0.98-1.43c0.49-0.53,0.69-1.26,0.71-1.98c0.02-0.84-0.27-1.5-0.45-2.27c-0.16-0.69-0.01-1.45-0.34-2.11
								c-0.22-0.44-0.85-0.66-0.57-1.29c0.17-0.39,0.64-0.61,1.05-0.51c-0.06-0.82-0.17-1.31,0.02-2.11
								c0.19-0.8,0.65-1.57,1.39-1.92c0.74-0.35,1.76-0.15,2.16,0.57c0.19-0.6,0.89-0.96,1.43-0.64c1.66,0.97-1.02,3.93-2.18,4.14
								c-0.25,0.05-0.54,0.05-0.73,0.24c-0.15,0.15-0.19,0.38-0.2,0.6c-0.01,0.22-0.01,0.44-0.1,0.64
								c-0.09,0.19-0.33,0.34-0.53,0.26c0.07,0.03-0.14,1.85-0.15,2.04c-0.03,0.71-0.04,1.42-0.03,2.13
								c0.02,1.3,0.32,2.65,0.96,3.79c0.53,0.95,1.46,1.76,2.58,1.85c0.95,0.08,1.87-0.35,2.82-0.33c1.29,0.03,2.39,0.83,3.64,1.01
								c0.58,0.08,1.24,0.06,1.83,0.06c0.68,0,1.39-0.09,1.94-0.52c0.66-0.51,0.92-1.38,1.15-2.18c0.5-1.79,1.11-3.49,1.28-5.35
								c0.04-0.4,0.05-0.85-0.22-1.16c-0.21-0.25-0.59-0.37-0.69-0.68c-0.15-0.47,0.44-0.96,0.25-1.41c-0.16-0.38-0.7-0.36-1.1-0.45
								c-0.62-0.15-1.08-0.7-1.28-1.31c-0.2-0.6-0.18-1.26-0.3-1.88c-0.09-0.48,0.11-0.88,0.59-1.07c0.59-0.24,1.22,0.21,1.33,0.84
								c0.5-0.65,1.53-0.7,2.22-0.25c0.68,0.45,1.03,1.28,1.1,2.1c0.07,0.82-0.11,1.29-0.29,2.09c0.42-0.04,0.85,0.25,0.96,0.66
								c0.11,0.41-0.23,0.92-0.61,1.1c-0.64,0.31-0.78,2.15-1.03,2.78c-0.5,1.28-0.74,2.56-0.44,3.92c0.13,0.63,0.35,1.35-0.04,1.86
								c-0.18,0.23-0.46,0.37-0.61,0.62c-0.23,0.37-0.13,0.84-0.14,1.28c-0.02,0.96-1.03,2.39-1.98,2.6
								c-0.56,0.12-1.15,0.08-1.71,0.21c-0.63,0.15-1.19,0.5-1.79,0.73c-1.05,0.39-2.2,0.38-3.33,0.37
								c-1.02-0.01-2.09-0.04-2.98-0.54c-0.81-0.45-1.41-1.25-2.28-1.54c-0.52-0.17-1.1-0.15-1.62-0.33
								c-0.76-0.27-1.32-0.96-1.61-1.72C160.25,35.73,160.28,35.09,160.13,34.47z"/>
						</g>
					</g>
					<g>
						<g>
							<path class="st2" d="M167.99,35.15c-0.39-0.01-0.8,0.02-1.11,0.25c-0.37,0.27-0.5,0.76-0.53,1.22
								c-0.02,0.46,0.06,0.94,0.35,1.3c0.29,0.35,0.83,0.53,1.23,0.31c0.21-0.12,0.43-0.35,0.66-0.25c0.2,0.08,0.22,0.35,0.33,0.54
								c0.23,0.41,0.84,0.39,1.25,0.18c0.48-0.25,0.85-0.69,1.01-1.2c0.12-0.37,0.12-0.77,0.02-1.14c-0.12-0.45-0.3-0.53-0.72-0.69
								C169.69,35.34,168.84,35.17,167.99,35.15z"/>
						</g>
					</g>
					<g>
						<g>
							<g>
								<g>
									<g>
										<path class="st5" d="M169.65,37.1c0.42-0.11,1.12-0.56,1.09-0.97c-0.03-0.42-0.83-0.27-1.2-0.32
											c-0.46-0.07-0.9-0.19-1.33-0.34c-0.42-0.15-0.97-0.33-1.01,0.15c-0.04,0.39,0.26,0.85,0.63,1.13
											C168.33,37.11,169.06,37.25,169.65,37.1z"/>
									</g>
								</g>
							</g>
							<g>
								<g>
									<g>
										<path class="st6" d="M167.92,35.44c0,0.01-0.01,0.02-0.01,0.03c0,0.08,0.16,0.2,0.23,0.26c0.35,0.28,0.89,0.42,1.35,0.42
											c0.16,0,0.32-0.02,0.45-0.08c0.07-0.03,0.31-0.16,0.14-0.22c-0.09-0.03-0.3,0-0.4-0.01c-0.26-0.02-0.53-0.06-0.78-0.12
											C168.79,35.69,167.95,35.37,167.92,35.44z"/>
									</g>
								</g>
							</g>
						</g>
						<g>
							<g>
								<g>
									<path class="st5" d="M172.16,31.61c-0.18,0.23-0.27,0.59-0.26,0.8c0.01,0.08,0.03,0.17,0.1,0.2
										c0.1,0.05,0.21-0.05,0.24-0.15s0.02-0.21,0.04-0.31c0.02-0.1,0.12-0.21,0.22-0.18c0.08,0.02,0.13,0.12,0.13,0.2
										c0.01,0.12-0.03,0.23-0.01,0.35s0.11,0.24,0.23,0.21c0.08-0.02,0.12-0.1,0.15-0.17c0.12-0.31,0.13-0.95-0.23-1.13
										C172.52,31.29,172.31,31.41,172.16,31.61z"/>
								</g>
							</g>
						</g>
						<g>
							<g>
								<g>
									<path class="st5" d="M165.92,30.58c0.11,0.19,0.17,0.42,0.16,0.57c-0.01,0.08-0.02,0.15-0.07,0.21
										c-0.05,0.06-0.14,0.09-0.2,0.06c-0.08-0.04-0.1-0.15-0.11-0.24c-0.01-0.11-0.01-0.23-0.06-0.32
										c-0.05-0.1-0.17-0.17-0.27-0.14c-0.13,0.05-0.16,0.22-0.16,0.37c0,0.14-0.04,0.32-0.18,0.35c-0.11,0.02-0.22-0.08-0.24-0.2
										c-0.06-0.33,0.13-0.95,0.5-1.05C165.54,30.11,165.77,30.32,165.92,30.58z"/>
								</g>
							</g>
						</g>
					</g>
				</g>
				<g>
					<g>
						<path class="st5" d="M168.87,34.33c0.04-0.01,0.07-0.04,0.09-0.08c0.03-0.08-0.01-0.16-0.08-0.19
							c-0.19-0.08-0.41-0.16-0.57-0.31c-0.12-0.12-0.22-0.31-0.16-0.48c0.05-0.14,0.2-0.24,0.35-0.34c0.09-0.06,0.17-0.11,0.25-0.18
							c0.5-0.44,0.51-1.16,0.44-1.88c-0.01-0.08-0.08-0.14-0.16-0.13c-0.08,0.01-0.14,0.08-0.13,0.16c0.06,0.64,0.06,1.28-0.34,1.63
							c-0.07,0.06-0.14,0.11-0.22,0.16c-0.18,0.12-0.39,0.25-0.47,0.49c-0.09,0.26,0,0.57,0.24,0.79c0.2,0.19,0.45,0.29,0.66,0.37
							C168.8,34.34,168.84,34.34,168.87,34.33z"/>
					</g>
				</g>
			</g>
		</g>
	</g>
	<g>
		<g>
			<g>
				<g>
					<g>
						<g>
							<g>
								<g>
									<g>
										<g>
											<g>
												<path class="st2" d="M77.79,64.58c-1.22-5.47-5.06-10.34-7.99-15.1c-1.88-3.06-8.97-20.42-13.39-18.35
													c-0.89,0.42-1.46,1.31-1.68,2.24c-0.22,0.93-0.13,1.91,0,2.86c0.65,4.7,2.82,8.71,4.39,13.11
													c1.79,5.03,4.41,9.87,6.34,14.87c0.73,1.89,1.32,3.9,2.72,5.4c1.76,1.89,4.51,2.57,7.04,2.35
													c2.97-0.26,3.14-3.08,2.88-5.54C78.03,65.79,77.93,65.18,77.79,64.58z"/>
											</g>
										</g>
									</g>
								</g>
							</g>
						</g>
					</g>
				</g>
			</g>
			<g>
				<g>
					<path class="st8" d="M75.43,72.16c-0.65,0.21-1.39,0.15-2.08,0.05c-1.19-0.16-2.38-0.41-3.46-0.93
						c-2.82-1.38-4.29-5.02-5.51-7.73c-1.63-3.61-2.9-7.38-4-11.19c1.01-0.72,5.58-5.3,9.34-4.73c0,0,7.99,15.24,7.99,15.24
						c0.3,0.57-0.18,2.21-0.18,2.84c-0.02,1.27-0.13,2.46-0.31,3.73c-0.13,0.94-0.44,1.94-1.23,2.47
						C75.81,72.02,75.62,72.1,75.43,72.16z"/>
				</g>
			</g>
		</g>
		<g>
			<path class="st2" d="M36.27,10.27c0.4-0.07,0.83,0.01,1.21-0.16c0.16-0.07,0.3-0.2,0.36-0.37c0.15-0.42-0.32-0.84-0.67-1.17
				l-0.03,0.02c-2.06-2.09-5.61-5.93-5.34-6.5c0.76-1.56,4.69,3.91,5.2,3.76s-5.21-5.3-4.28-5.99c0.2-0.15,0.59,0.17,0.74,0.27
				c0.46,0.32,0.88,0.71,1.29,1.09c0.99,0.94,1.82,2.01,2.82,2.94c0.2,0.19,0.41,0.37,0.63,0.55c0.09,0.08,0.28,0.22,0.38,0.1
				c0.1-0.12-0.04-0.42-0.1-0.53c-0.1-0.16-0.24-0.3-0.37-0.43c-1.12-1.08-2.25-2.15-3.37-3.23c-0.23-0.22-0.47-0.5-0.39-0.81
				c0.06-0.21,0.28-0.36,0.51-0.35c0.38,0.01,0.77,0.46,1.06,0.7c0.33,0.27,0.66,0.55,0.98,0.82c0.7,0.59,1.38,1.19,2.08,1.78
				c0.26,0.22,0.48,0.49,0.75,0.71c0.08,0.07,0.93,0.6,0.81,0.13c-0.02-0.07-0.07-0.13-0.12-0.18c-0.82-0.83-1.67-1.63-2.56-2.39
				c-0.19-0.16-0.39-0.38-0.32-0.61c0.05-0.17,0.25-0.26,0.43-0.25c0.18,0.01,0.34,0.1,0.5,0.19c0.45,0.26,0.87,0.56,1.3,0.85
				c0.86,0.6,1.73,1.2,2.45,1.97c1.39,1.48,1.82,3.14,2.82,4.82c0.41,0.69,0.83,1.4,1.03,2.17c6.04,6.82,12.69,14.24,15.24,23.11
				c0.31,1.07,0.55,2.22,0.27,3.3c-0.51,1.94-3.76,3.54-5.55,2.56c-1.14-0.62-1.85-1.79-2.46-2.94c-3.19-6.01-5.64-12.37-8.78-18.43
				c-0.9-1.73-1.89-3.41-2.93-5.06c-0.01-0.02-0.02-0.03-0.03-0.05c-0.33-0.02-0.55,0.1-0.89,0.15c-0.76,0.11-1.73-0.03-2.44-0.32
				c-0.56-0.22-1.12-0.5-1.72-0.51c-0.41-0.01-0.9,0.08-1.19-0.22c-0.17-0.18-0.22-0.45-0.15-0.69
				C35.53,10.7,35.88,10.33,36.27,10.27z"/>
		</g>
		<g>
			<g>
				<g>
					<g>
						<g>
							<g>
								<g>
									<g>
										<g>
											<path class="st2" d="M51.91,77.55c0.38,5.59-1.92,11.35-3.36,16.75c-0.93,3.46-2.8,22.13-7.63,21.4
												c-0.97-0.15-1.77-0.84-2.25-1.67c-0.47-0.83-0.67-1.79-0.81-2.74c-0.71-4.69,0.23-9.15,0.48-13.81
												c0.29-5.33,1.42-10.72,1.85-16.06c0.16-2.01,0.16-4.11,1.07-5.95c1.15-2.31,3.6-3.74,6.08-4.25
												c2.92-0.6,3.89,2.06,4.33,4.5C51.79,76.32,51.86,76.93,51.91,77.55z"/>
										</g>
									</g>
								</g>
							</g>
						</g>
					</g>
				</g>
			</g>
		</g>
		<g>
			<g>
				<path class="st8" d="M48.88,69.34c-9.23,2.17-10.51,6.71-10.36,25.7c1.17,0.41,6.85,3.49,10.29,1.88l3.33-16.88L48.88,69.34z"/>
			</g>
		</g>
		<g>
			<g>
				<g>
					<g>
						<path class="st2" d="M76.06,167.72c-0.73,4.49-1.66,9.12-3.47,14.53c-0.92,2.73-2.17,5.1-2.95,7.93
							c-1.1,4.04-2.23,8.08-3.38,12.12c-0.11,0.39-4.19-0.31-4.61-1.19c-0.01-0.01-0.01-0.03-0.02-0.04
							c-0.18-0.54-0.06-1.12,0.06-1.67c0.68-3.18,0.57-6.32,0.74-9.55c0.12-2.27,0.13-4.53,0.11-6.79
							c-0.04-5.24-0.26-10.48,0.22-15.73c0.06-0.66,0.13-1.33,0.2-1.99L76.06,167.72z"/>
					</g>
				</g>
			</g>
			<g>
				<g>
					<g>
						<g>
							<path class="st4" d="M55.46,203.1c0,0,8.03-6.68,8.56-6.69c0.53-0.01,1.55,0.59,1.34,1.27c-0.21,0.68,0.76,3.12,1.13,3.16
								c0.37,0.04,0.67-1.1-0.27-1.56c0,0,1.24,0.48,1.27,1.55c0.03,1.06-0.64,2.32-0.64,2.32l-0.96,2.16c0,0-6.82,1.89-6.93,1.82
								c-0.1-0.07-3.43-3.11-3.43-3.11L55.46,203.1z"/>
						</g>
					</g>
				</g>
				<g>
					<g>
						<g>
							<path class="st4" d="M51.22,204.11c0-0.16,1.82-0.4,2.54-0.62c0.71-0.22,3.05-1.2,3.27-1.25c0.22-0.05,7.72-4.83,7.83-4.7
								c0.11,0.13,0.42,1.61,0.28,1.86c-0.13,0.25-3.42,3.43-5.3,4.05c0.08,0.18,1.29,1.15,0.67,2.77
								C59.88,207.83,51.25,205.58,51.22,204.11z"/>
						</g>
					</g>
				</g>
				<g>
					<g>
						<g>
							<path class="st4" d="M55.46,203.1c0,0,6.36-6.2,6.77-6.04c0.41,0.16,0.42,0.61,0.33,0.74
								C62.47,197.92,55.46,203.1,55.46,203.1z"/>
						</g>
					</g>
				</g>
				<g>
					<g>
						<g>
							<path class="st4" d="M65.86,205.02c0,0,1.16-2.12,1.36-2.73c0.2-0.61,0.19,2.45-0.59,3.21
								C65.86,206.26,65.86,205.02,65.86,205.02z"/>
						</g>
					</g>
				</g>
				<g>
					<g>
						<g>
							<path class="st6" d="M52.03,203.83c0.08,0-0.47,0.05-0.3,0.21c0.17,0.16,6.99,1.97,9.16,1.77c2.14-0.19,0.94-0.01,3-0.36
								c2.04-0.34,3.03-0.11,3.2-0.46c0,0-0.34,1.76-0.6,1.84c-1.53,0.49-3.06,0.49-4.55,1.1c-1.9,0.77-3.96,0.45-6.04,0.01
								c-0.62-0.13-5.77-1.47-5.76-1.97c0,0,0.12-0.84,0.2-1.09C50.43,204.64,50.8,203.86,52.03,203.83z"/>
						</g>
					</g>
				</g>
			</g>
			<g>
				<g>
					<g>
						<path class="st6" d="M57.25,202.11c-0.09,0.03-0.21,0.06-0.26-0.03c-0.03-0.06-0.01-0.14,0.02-0.19
							c0.04-0.05,0.09-0.09,0.15-0.12c0.33-0.18,0.69-0.23,1.04-0.21c0.35,0.02,0.69,0.1,1.03,0.18c0.13,0.03,0.27,0.07,0.37,0.16
							c0.15,0.13,0.21,0.41,0.02,0.56c-0.16,0.12-0.25,0-0.36-0.11c-0.33-0.29-0.82-0.37-1.24-0.37
							C57.76,201.97,57.5,202.02,57.25,202.11z"/>
					</g>
				</g>
			</g>
			<g>
				<g>
					<g>
						<path class="st6" d="M57.99,201.31c-0.1,0.02-0.22,0.02-0.25-0.08c-0.02-0.06,0.01-0.14,0.05-0.19
							c0.04-0.05,0.1-0.07,0.16-0.09c0.34-0.11,0.7-0.1,1.04-0.02c0.34,0.08,0.66,0.23,0.98,0.37c0.12,0.06,0.25,0.12,0.34,0.23
							c0.13,0.16,0.15,0.45-0.06,0.56c-0.17,0.09-0.24-0.05-0.34-0.17c-0.28-0.35-0.75-0.53-1.16-0.6
							C58.51,201.27,58.25,201.27,57.99,201.31z"/>
					</g>
				</g>
			</g>
			<g>
				<g>
					<g>
						<path class="st6" d="M58.64,200.57c-0.09,0.02-0.22,0.02-0.25-0.08c-0.02-0.06,0.01-0.14,0.05-0.19
							c0.04-0.05,0.1-0.07,0.16-0.09c0.34-0.11,0.7-0.1,1.04-0.01c0.34,0.08,0.66,0.23,0.97,0.37c0.12,0.06,0.25,0.12,0.34,0.23
							c0.13,0.16,0.15,0.45-0.06,0.56c-0.17,0.09-0.24-0.05-0.34-0.17c-0.28-0.35-0.75-0.53-1.15-0.6
							C59.16,200.54,58.9,200.53,58.64,200.57z"/>
					</g>
				</g>
			</g>
			<g>
				<g>
					<g>
						<path class="st6" d="M59.43,199.81c-0.09,0.01-0.22,0.01-0.25-0.1c-0.02-0.06,0.01-0.14,0.06-0.18
							c0.05-0.04,0.1-0.06,0.16-0.08c0.34-0.09,0.7-0.06,1.03,0.05c0.33,0.1,0.64,0.27,0.95,0.43c0.12,0.06,0.24,0.13,0.33,0.25
							c0.12,0.17,0.13,0.46-0.08,0.55c-0.17,0.08-0.23-0.06-0.33-0.19c-0.26-0.37-0.72-0.57-1.12-0.67
							C59.95,199.81,59.69,199.79,59.43,199.81z"/>
					</g>
				</g>
			</g>
			<g>
				<g>
					<g>
						<path class="st6" d="M60.04,199.2c-0.09,0.01-0.22,0.01-0.25-0.1c-0.02-0.06,0.01-0.14,0.06-0.18
							c0.05-0.04,0.1-0.06,0.16-0.08c0.34-0.09,0.7-0.05,1.03,0.05c0.33,0.1,0.64,0.27,0.95,0.43c0.12,0.06,0.24,0.13,0.33,0.25
							c0.12,0.17,0.13,0.46-0.08,0.55c-0.17,0.08-0.23-0.06-0.33-0.2c-0.26-0.37-0.72-0.58-1.11-0.67
							C60.55,199.19,60.3,199.17,60.04,199.2z"/>
					</g>
				</g>
			</g>
			<g>
				<g>
					<g>
						<path class="st6" d="M60.94,198.37c-0.09-0.01-0.21-0.03-0.23-0.14c-0.01-0.07,0.03-0.14,0.08-0.17
							c0.05-0.04,0.11-0.05,0.17-0.05c0.35-0.03,0.69,0.06,1,0.22c0.31,0.16,0.59,0.37,0.88,0.59c0.11,0.08,0.22,0.17,0.29,0.3
							c0.1,0.19,0.07,0.48-0.14,0.54c-0.17,0.05-0.22-0.1-0.3-0.25c-0.21-0.41-0.64-0.69-1.01-0.86
							C61.44,198.45,61.2,198.39,60.94,198.37z"/>
					</g>
				</g>
			</g>
			<g>
				<g>
					<g>
						<path class="st6" d="M61.67,197.91c-0.09-0.01-0.21-0.03-0.23-0.14c-0.01-0.07,0.03-0.14,0.08-0.17
							c0.05-0.04,0.11-0.05,0.17-0.05c0.35-0.03,0.69,0.06,1,0.22c0.31,0.16,0.59,0.37,0.87,0.59c0.11,0.08,0.22,0.17,0.29,0.3
							c0.1,0.19,0.07,0.48-0.14,0.54c-0.17,0.05-0.22-0.1-0.3-0.25c-0.21-0.41-0.63-0.69-1-0.86
							C62.17,197.99,61.92,197.92,61.67,197.91z"/>
					</g>
				</g>
			</g>
			<g>
				<g>
					<path class="st3" d="M64.73,139.21c1.77-6.93,3.05-14.04,5.84-20.66c2.22-5.26,6.17-12.84,11.56-15.46
						c1.21,2.29,1.6,3.59,3.8,5.44c1.2,1.01,2.29,2.11,3.58,3.03c2.49,1.77,5.26,3.14,8.17,4.06c0.19,0.06,0.39,0.1,0.58,0.16
						c-0.91,2.79-1.91,5.55-3.02,8.27c-0.91,2.24-1.84,4.45-2.66,6.72c-0.47-0.69-1.21-0.28-2.71,2.35c-2.74,4.8-4.68,10-6.84,15.07
						c-0.54,1.27-1.23,2.46-1.78,3.72c-0.73,1.69-0.77,3.69-0.92,5.49c-0.25,3.07-2.7,5.57-2.59,8.71c0.03,0.82,0.23,1.69-0.16,2.41
						c-0.2,0.36-0.53,0.64-0.69,1.01c-0.48,1.12,0.36,2.54-1.04,3.25c-0.86,0.43-2.64-0.01-3.52-0.15
						c-2.92-0.48-7.08-0.66-9.61-2.34c-1.19-0.79-2.01-2.35-1.48-3.68c0.32-0.81,1.09-1.44,1.17-2.3c0.11-1.11-0.95-1.99-1.18-3.08
						c-0.6-2.78,0.92-6.32,0.84-9.21C61.97,147.77,63.67,143.35,64.73,139.21z"/>
				</g>
			</g>
		</g>
		<g>
			<g>
				<g>
					<g>
						<path class="st2" d="M96.02,166.21c-0.25,4.55-0.34,9.26,0.27,14.93c0.31,2.86,1.03,5.45,1.17,8.38
							c0.21,4.19,0.44,8.37,0.69,12.56c0.02,0.4,4.16,0.6,4.76-0.17c0.01-0.01,0.02-0.02,0.03-0.04c0.3-0.48,0.3-1.08,0.3-1.64
							c0.02-3.25,0.8-6.3,1.34-9.49c0.37-2.24,0.85-4.45,1.35-6.66c1.17-5.11,2.51-10.18,3.17-15.41c0.08-0.66,0.16-1.32,0.24-1.99
							L96.02,166.21z"/>
					</g>
				</g>
			</g>
		</g>
		<g>
			<g>
				<path class="st3" d="M113.22,140.81c-0.34-10.26-0.14-19.99-3.74-29.7c-1.23-3.33-2.6-7.04-5.48-9.32
					c-1.67,1.97-2.33,3.16-4.88,4.5c-1.39,0.73-2.69,1.57-4.15,2.19c-2.81,1.19-5.81,1.94-8.86,2.21c-0.2,0.02-0.4,0.02-0.61,0.03
					c0.29,2.92,0.67,5.83,1.17,8.72c0.41,2.39,0.84,4.74,1.15,7.13c0.61-0.57,1.24-0.01,2.14,2.88c1.64,5.27,2.42,10.78,3.43,16.19
					c0.25,1.36,0.67,2.67,0.93,4.02c0.35,1.8-0.04,3.77-0.29,5.56c-0.42,3.05,1.44,6.02,0.66,9.06c-0.2,0.79-0.59,1.6-0.36,2.39
					c0.12,0.39,0.38,0.74,0.46,1.14c0.23,1.2-0.89,2.41,0.32,3.4c0.75,0.61,2.58,0.56,3.47,0.61c2.96,0.16,7.05,0.88,9.89-0.21
					c1.33-0.51,2.47-1.86,2.23-3.27c-0.14-0.86-0.75-1.64-0.65-2.5c0.13-1.1,1.35-1.74,1.82-2.75c1.19-2.58,0.46-6.37,1.16-9.18
					C114.07,149.75,113.36,145.07,113.22,140.81z"/>
			</g>
		</g>
		<g>
			<g>
				<g>
					<g>
						<g>
							<path class="st4" d="M108.53,205.19c0,0-6.41-8.26-6.92-8.37c-0.51-0.12-1.64,0.24-1.58,0.95c0.06,0.71-1.41,2.88-1.78,2.84
								c-0.37-0.04-0.41-1.22,0.6-1.46c0,0-1.32,0.2-1.57,1.24c-0.25,1.03,0.13,2.4,0.13,2.4l0.48,2.31c0,0,6.26,3.31,6.37,3.27
								c0.12-0.05,4.02-2.3,4.02-2.3L108.53,205.19z"/>
						</g>
					</g>
				</g>
				<g>
					<g>
						<g>
							<path class="st4" d="M112.44,207.09c0.04-0.15-1.69-0.78-2.34-1.15c-0.65-0.37-2.72-1.83-2.93-1.92
								c-0.21-0.09-6.5-6.38-6.64-6.28c-0.14,0.11-0.75,1.48-0.68,1.75c0.08,0.27,2.61,4.09,4.31,5.09
								c-0.12,0.16-1.51,0.84-1.25,2.56C103.18,208.86,112.1,208.52,112.44,207.09z"/>
						</g>
					</g>
				</g>
				<g>
					<g>
						<g>
							<path class="st4" d="M108.53,205.19c0,0-4.87-7.42-5.31-7.35c-0.44,0.07-0.54,0.51-0.48,0.65
								C102.79,198.63,108.53,205.19,108.53,205.19z"/>
						</g>
					</g>
				</g>
				<g>
					<g>
						<g>
							<path class="st4" d="M97.95,204.83c0,0-0.67-2.32-0.74-2.96c-0.06-0.64-0.71,2.36-0.12,3.26
								C97.69,206.04,97.95,204.83,97.95,204.83z"/>
						</g>
					</g>
				</g>
				<g>
					<g>
						<g>
							<path class="st6" d="M111.71,206.64c-0.07-0.02,0.45,0.15,0.25,0.27c-0.2,0.12-7.25,0.41-9.33-0.24
								c-2.05-0.65-0.91-0.22-2.85-1c-1.92-0.77-2.93-0.76-3.03-1.13c0,0-0.04,1.79,0.19,1.93c1.39,0.81,2.89,1.14,4.21,2.05
								c1.69,1.16,3.77,1.29,5.89,1.31c0.63,0.01,5.95-0.19,6.05-0.68c0,0,0.07-0.84,0.03-1.1
								C113.1,207.78,112.91,206.94,111.71,206.64z"/>
						</g>
					</g>
				</g>
			</g>
			<g>
				<g>
					<g>
						<path class="st6" d="M106.99,203.84c0.08,0.05,0.2,0.11,0.26,0.02c0.04-0.05,0.04-0.13,0.02-0.19
							c-0.03-0.06-0.07-0.11-0.12-0.15c-0.28-0.24-0.63-0.37-0.97-0.43c-0.35-0.06-0.7-0.05-1.04-0.04c-0.14,0-0.28,0.01-0.4,0.08
							c-0.17,0.1-0.29,0.36-0.14,0.54c0.13,0.15,0.24,0.05,0.38-0.03c0.38-0.21,0.89-0.19,1.29-0.1
							C106.51,203.6,106.76,203.7,106.99,203.84z"/>
					</g>
				</g>
			</g>
			<g>
				<g>
					<g>
						<path class="st6" d="M106.43,202.9c0.09,0.04,0.21,0.07,0.26-0.03c0.03-0.06,0.02-0.14-0.01-0.19
							c-0.03-0.06-0.08-0.09-0.14-0.12c-0.31-0.18-0.67-0.25-1.02-0.24c-0.35,0.01-0.69,0.08-1.04,0.15
							c-0.13,0.03-0.27,0.06-0.38,0.15c-0.16,0.13-0.24,0.41-0.07,0.56c0.15,0.12,0.24,0,0.37-0.1c0.35-0.28,0.85-0.35,1.26-0.34
							C105.94,202.75,106.19,202.8,106.43,202.9z"/>
					</g>
				</g>
			</g>
			<g>
				<g>
					<g>
						<path class="st6" d="M105.96,202.04c0.09,0.04,0.21,0.07,0.26-0.03c0.03-0.06,0.02-0.14-0.01-0.19
							c-0.03-0.06-0.08-0.09-0.14-0.12c-0.31-0.18-0.67-0.24-1.01-0.24c-0.35,0.01-0.69,0.08-1.03,0.16
							c-0.13,0.03-0.27,0.06-0.38,0.15c-0.16,0.13-0.24,0.41-0.07,0.56c0.15,0.12,0.24,0,0.37-0.1c0.35-0.28,0.85-0.36,1.25-0.34
							C105.46,201.9,105.71,201.95,105.96,202.04z"/>
					</g>
				</g>
			</g>
			<g>
				<g>
					<g>
						<path class="st6" d="M105.35,201.13c0.09,0.03,0.21,0.05,0.26-0.04c0.03-0.06,0.02-0.14-0.02-0.19
							c-0.03-0.05-0.09-0.09-0.14-0.11c-0.32-0.16-0.67-0.2-1.02-0.18c-0.35,0.03-0.69,0.12-1.02,0.22
							c-0.13,0.04-0.27,0.08-0.38,0.17c-0.15,0.14-0.23,0.42-0.04,0.56c0.15,0.11,0.24-0.01,0.36-0.12c0.33-0.3,0.83-0.4,1.24-0.42
							C104.85,201.01,105.1,201.05,105.35,201.13z"/>
					</g>
				</g>
			</g>
			<g>
				<g>
					<g>
						<path class="st6" d="M104.89,200.4c0.09,0.03,0.21,0.05,0.26-0.04c0.03-0.06,0.02-0.14-0.02-0.19
							c-0.03-0.05-0.09-0.09-0.14-0.11c-0.32-0.16-0.67-0.2-1.02-0.17c-0.34,0.03-0.68,0.12-1.02,0.22
							c-0.13,0.04-0.27,0.08-0.37,0.17c-0.15,0.14-0.22,0.42-0.04,0.56c0.15,0.11,0.24-0.01,0.36-0.12c0.33-0.3,0.83-0.41,1.23-0.42
							C104.39,200.28,104.64,200.32,104.89,200.4z"/>
					</g>
				</g>
			</g>
			<g>
				<g>
					<g>
						<path class="st6" d="M104.18,199.39c0.09,0.01,0.21,0.02,0.25-0.09c0.02-0.06,0-0.14-0.04-0.19c-0.04-0.05-0.1-0.07-0.15-0.09
							c-0.33-0.11-0.69-0.09-1.02,0c-0.34,0.09-0.66,0.24-0.98,0.39c-0.13,0.06-0.25,0.12-0.35,0.23c-0.13,0.16-0.17,0.45,0.02,0.56
							c0.16,0.08,0.24-0.05,0.34-0.18c0.29-0.35,0.77-0.54,1.17-0.62C103.68,199.37,103.93,199.36,104.18,199.39z"/>
					</g>
				</g>
			</g>
			<g>
				<g>
					<g>
						<path class="st6" d="M103.58,198.79c0.09,0.01,0.21,0.02,0.25-0.09c0.02-0.06,0-0.14-0.04-0.19c-0.04-0.05-0.1-0.07-0.15-0.09
							c-0.33-0.11-0.68-0.09-1.02,0c-0.34,0.09-0.66,0.24-0.98,0.39c-0.12,0.06-0.25,0.12-0.35,0.24c-0.13,0.16-0.17,0.45,0.02,0.56
							c0.16,0.08,0.24-0.05,0.34-0.18c0.29-0.35,0.77-0.54,1.17-0.62C103.07,198.76,103.33,198.75,103.58,198.79z"/>
					</g>
				</g>
			</g>
		</g>
		<g>
			<g>
				<path class="st8" d="M42.03,74.28c-0.23-2.34,2.11-3.46,5.37-5.13c4.51-2.31,9.09-4.49,13.72-6.54
					c5.06-2.23,12.51-7.91,15.9-1.2c4.05,8.03,9.21,15.49,15.3,22.11c2.56,2.79,5.28,5.44,7.73,8.32c2.03,2.39,6.11,6.82,6.21,10.16
					c0.15,4.99-8.35,11.11-11.99,13.76c-6.43,4.69-14.28,7.48-22.25,7.64c-0.9,0.02-1.84,0-2.64-0.43
					c-2.02-1.07-2.03-3.88-2.06-6.16c-0.07-4.95-1.78-9.75-4.14-14.05c-1.13-2.06-2.53-3.61-3.89-5.44
					c-4.96-6.72-10.78-12.75-15.65-19.57C42.63,76.34,42.13,75.21,42.03,74.28z"/>
			</g>
		</g>
		<g>
			<g>
				<g>
					<path class="st7" d="M48.43,67.31c0.11,0,0.22-0.01,0.32-0.04c0.81-0.21,1.78-0.26,2.59,0.01c0.7,0.23,1.23,0.63,2.01,0.67
						c1.49,0.07,2.92-0.69,4.22-1.31c1.25-0.59,2.43-1.39,3.33-2.44c0.48-0.56,0.9-1.18,1.22-1.85c0.18-0.37,0.17-0.86,0.39-1.2
						c0.22-0.34,0.73-0.62,1.03-0.89c0.8-0.7,1.64-1.44,2.14-2.39c0.3-0.58,0.47-1.18,0.48-1.83c0.02-0.75-0.32-0.97-0.59-1.6
						c-0.13-0.3-0.04-0.65,0.09-0.95c0.14-0.3,0.32-0.57,0.4-0.89c0.11-0.45-0.25-1.17-0.41-1.59c-0.2-0.54-0.53-1-1.12-1.16
						c-0.18-0.05-0.38-0.05-0.53-0.16c-0.43-0.29-0.33-1.17-0.6-1.61c-0.36-0.59-0.87-0.77-1.48-1.04
						c-1.51-0.68-1.26-2.24-2.32-3.29c-0.9-0.89-2.22-1.4-3.49-1.23c-0.57,0.07-1.12,0.26-1.69,0.23c-0.75-0.04-1.42-0.46-2.12-0.71
						c-2.45-0.86-5.52,0.19-7.18,2.09c-0.66,0.75-1.15,1.64-1.8,2.4c-0.81,0.95-1.83,1.69-2.62,2.65c-0.6,0.73-1.08,1.67-1.07,2.63
						c0.02,1.08,1.06,1.61,1.19,2.72c0.15,1.26-0.76,2.38-0.49,3.68c0.28,1.3,1,1.77,1.75,2.74c0.34,0.44,0.31,2.15,0.98,1.98
						c0.18-0.04,0.34-0.17,0.53-0.15c0.17,0.02,0.3,0.17,0.4,0.31c0.58,0.81,0.8,2.07,1.57,2.71
						C46.27,66.39,47.46,67.31,48.43,67.31z"/>
				</g>
			</g>
			<g>
				<g>
					<g>
						<g>
							<g>
								<g>
									<g>
										<g>
											<g>
												<g>
													<g>
														<g>
															<g>
																<g>
																	<g>
																		<path class="st2" d="M60.75,65.53c-0.2,0.05-0.4,0.1-0.63,0.07c-0.69-0.08-1.23-0.66-1.7-1.13
																			c-1.96-1.94-3.21-4.44-4.83-6.64c0.08,0.1-0.69,1.36-0.75,1.48c-0.24,0.48-0.49,0.97-0.73,1.45
																			c-0.19,0.37-0.68,1-0.72,1.4c-0.15,1.9,1.78,2.96,2.75,4.28c0.47,0.65,1.32,1.32,1.56,2.11
																			c0.43,1.46-0.84,2.75-0.77,4.18c0.08,1.57,0.71,3.27,2.03,4.2c1.29,0.91,3.01,1.1,4.53,0.68
																			c1.52-0.42,2.85-1.4,3.87-2.6c0.92-1.08,1.63-2.4,1.67-3.82c0.05-1.56-0.74-3.08-1.91-4.11
																			c-0.87-0.77-2.34-1.69-3.55-1.71C61.28,65.36,61.01,65.46,60.75,65.53z"/>
																	</g>
																</g>
															</g>
														</g>
													</g>
												</g>
											</g>
										</g>
									</g>
								</g>
							</g>
							<g>
								<g>
									<g>
										<g>
											<g>
												<g>
													<g>
														<g>
															<g>
																<g>
																	<g>
																		<path class="st5" d="M58.3,64.14c-0.01,0.05-0.02,0.1-0.04,0.14c-0.07,0.25-0.14,0.5-0.23,0.75
																			c-0.1,0.29-0.22,0.58-0.34,0.86c-0.01,0.03-0.02,0.05-0.03,0.07c-0.08,0.14-0.15,0.29-0.23,0.43
																			c-0.28,0.5-0.59,0.99-0.93,1.46c-0.22,0.3-0.45,0.59-0.68,0.88c-0.5-0.82-1.11-1.51-1.69-2.3
																			c-0.96-1.32-2.9-2.38-2.75-4.28c0.03-0.41,0.53-1.04,0.72-1.4c0.24-0.48,0.49-0.97,0.73-1.45
																			c0.06-0.13,0.83-1.38,0.75-1.48c1.45,1.97,2.86,3.96,4.36,5.9C58.06,63.87,58.19,64,58.3,64.14z"/>
																	</g>
																</g>
															</g>
														</g>
													</g>
												</g>
											</g>
										</g>
									</g>
								</g>
							</g>
						</g>
					</g>
				</g>
			</g>
			<g>
				<g>
					<g>
						<g>
							<g>
								<g>
									<g>
										<g>
											<g>
												<g>
													<g>
														<path class="st2" d="M55.94,45.47c-0.85-0.53-1.81-0.91-2.88-1.1c-3.26-0.58-6.79,0.91-8.65,3.64
															c-1.1,1.62-1.59,3.62-1.44,5.57c0.08,1.03,0.35,1.97,0.73,2.92c0.37,0.94,0.53,1.96,0.96,2.88
															c0.6,1.28,1.44,2.44,2.45,3.43c1.97,1.93,4.6,3.22,7.37,3.39c0.85,0.05,1.71,0.01,2.51-0.27
															c0.68-0.24,1.29-0.66,1.82-1.14c2.11-1.94,2.88-5,2.71-7.86C61.25,52.75,59.6,47.74,55.94,45.47z"/>
													</g>
												</g>
											</g>
										</g>
									</g>
								</g>
							</g>
						</g>
					</g>
				</g>
				<g>
					<g>
						<g>
							<path class="st2" d="M59.29,53.1c0.5-0.83,0.85-1.75,1.02-2.7c0.04-0.23,0.08-0.47,0.2-0.67c0.13-0.2,0.38-0.34,0.6-0.26
								c0.14,0.05,0.23,0.17,0.32,0.29c0.43,0.57,0.87,1.17,1.03,1.86s-0.01,1.52-0.6,1.92c-0.24,0.16-0.52,0.24-0.77,0.38
								c-0.25,0.14-0.49,0.35-0.52,0.64"/>
						</g>
					</g>
				</g>
				<g>
					<g>
						<g>
							<g>
								<g>
									<path class="st5" d="M55.96,61.44c0.32-0.29,0.73-1.02,0.51-1.37c-0.22-0.35-0.86,0.15-1.21,0.27
										c-0.44,0.15-0.88,0.26-1.34,0.32c-0.44,0.06-1.01,0.16-0.83,0.6c0.15,0.36,0.63,0.63,1.09,0.7
										C54.79,62.06,55.5,61.85,55.96,61.44z"/>
								</g>
							</g>
						</g>
						<g>
							<g>
								<g>
									<path class="st6" d="M53.64,60.78c0,0.01,0,0.02,0.01,0.03c0.04,0.07,0.24,0.1,0.32,0.12c0.44,0.09,0.98-0.05,1.39-0.26
										c0.14-0.07,0.27-0.17,0.36-0.28c0.05-0.06,0.2-0.29,0.02-0.26c-0.1,0.01-0.26,0.14-0.36,0.18
										c-0.24,0.11-0.49,0.19-0.75,0.26C54.53,60.59,53.64,60.7,53.64,60.78z"/>
								</g>
							</g>
						</g>
					</g>
					<g>
						<g>
							<g>
								<path class="st5" d="M55.98,55.71c-0.4,1.19,1.14,1.69,1.12,0.33C57.09,55.25,56.3,54.79,55.98,55.71z"/>
							</g>
						</g>
					</g>
					<g>
						<g>
							<g>
								<path class="st5" d="M49.27,57.64c1.09,0.9-0.1,2.3-0.88,0.97C47.94,57.85,48.44,56.94,49.27,57.64z"/>
							</g>
						</g>
					</g>
					<g>
						<g>
							<g>
								<path class="st7" d="M56.82,52.17c0.48-0.03,1.21,0.26,1.56,0.57c0.06,0.05,0.12,0.11,0.12,0.19
									c0.01,0.12-0.12,0.2-0.24,0.2c-0.12,0-0.22-0.05-0.33-0.1c-0.33-0.13-0.7-0.14-1.04-0.03c-0.26,0.08-0.49,0.23-0.76,0.27
									c-0.55,0.08-0.8-0.4-0.32-0.73c0.26-0.18,0.57-0.3,0.88-0.35C56.74,52.17,56.78,52.17,56.82,52.17z"/>
							</g>
						</g>
					</g>
					<g>
						<g>
							<g>
								<path class="st7" d="M47.25,55.89c-0.35,0.32-0.65,1.05-0.68,1.52c0,0.08,0,0.16,0.05,0.22c0.08,0.09,0.23,0.06,0.31-0.03
									c0.08-0.08,0.12-0.2,0.16-0.31c0.14-0.33,0.39-0.6,0.7-0.77c0.24-0.13,0.51-0.19,0.72-0.36c0.44-0.34,0.27-0.85-0.3-0.74
									c-0.31,0.06-0.61,0.2-0.87,0.39C47.32,55.84,47.29,55.86,47.25,55.89z"/>
							</g>
						</g>
					</g>
				</g>
			</g>
			<g>
				<g>
					<path class="st7" d="M49.68,49.12c1.11,0.74,2.45,1.07,3.91,1.24c2.45,0.29,4.66,0.86,6.15,2.99c1.07,1.54,1.59,3.39,2.09,5.2
						c-0.04-1.7-0.18-3.39-0.42-5.07c-0.21-1.41-0.3-3.37-1.02-4.63c-0.59-1.04-1.92-2.08-2.84-2.82c-1.21-0.97-2.59-1.75-4.07-2.23
						c-1.76-0.57-5.61-1.27-6.01,1.47c-0.11,0.72,0.13,1.45,0.51,2.07C48.46,48.11,49.03,48.68,49.68,49.12z"/>
				</g>
			</g>
			<g>
				<g>
					<path class="st2" d="M45.17,59.39c-0.24-0.38-0.48-0.77-0.81-1.07c-0.33-0.31-0.76-0.53-1.21-0.51
						c-0.45,0.02-0.9,0.33-0.98,0.77c-0.07,0.37,0.1,0.74,0.32,1.04c0.71,1,2.7,2.86,3.81,1.35"/>
				</g>
			</g>
			<g>
				<g>
					<path class="st7" d="M47.75,46.14c0.06,0.58,0.37,1.26,0.37,1.81c0,0.95-0.25,1.89-0.59,2.77c-0.6,1.56-1.49,3.02-1.89,4.65
						c-0.51,2.1-0.12,4.39,1.04,6.21c-0.3-0.46-0.99-0.86-1.37-1.29c-0.49-0.55-0.92-1.14-1.3-1.77c-0.69-1.17-1.01-2.34-1.27-3.65
						c-0.32-1.55-0.35-3.17-0.02-4.72c0.55-2.57,2.19-4.95,4.54-6.12c0.58-0.29,1.17-0.16,0.95,0.63c-0.08,0.3-0.26,0.55-0.39,0.83
						C47.73,45.69,47.72,45.91,47.75,46.14z"/>
				</g>
			</g>
			<g>
				<g>
					<path class="st5" d="M54.19,59.58c-0.02,0.01-0.04,0.02-0.07,0.03c-0.24,0.03-0.5,0.06-0.76-0.01
						c-0.31-0.09-0.54-0.32-0.58-0.59c-0.04-0.25,0.08-0.46,0.18-0.65c0.04-0.08,0.09-0.16,0.12-0.24c0.19-0.5-0.11-1.06-0.46-1.6
						c-0.04-0.07-0.03-0.16,0.04-0.2c0,0,0,0,0,0c0.07-0.04,0.16-0.03,0.21,0.04c0.4,0.6,0.73,1.24,0.49,1.87
						c-0.04,0.09-0.09,0.19-0.14,0.28c-0.09,0.16-0.17,0.32-0.15,0.47c0.03,0.18,0.2,0.3,0.37,0.35c0.2,0.06,0.43,0.03,0.64,0.01
						c0.08-0.01,0.15,0.05,0.16,0.13C54.26,59.5,54.23,59.55,54.19,59.58z"/>
				</g>
			</g>
		</g>
		<g>
			<g>
				<g>
					<g>
						<g>
							<g>
								<g>
									<g>
										<g>
											<g>
												<g>
													<g>
														<g>
															<path class="st2" d="M67.01,122.53c1.53-3.39-4.79-4.38-6.75-5.23c-4.14-1.81-8.17-3.83-12.07-6.06
																c-1.32-0.75-3.03-2.42-4.58-2.55c-2.29-0.19-6.04,2.67-5.04,5.06c0.36,0.87,1.13,1.5,1.91,2.04
																c6.2,4.37,13.68,4.95,20.74,7.31C62.99,123.69,65.88,125.03,67.01,122.53z"/>
														</g>
													</g>
												</g>
											</g>
										</g>
									</g>
								</g>
							</g>
						</g>
					</g>
				</g>
				<g>
					<g>
						<path class="st2" d="M79.41,122.83c0.26-1.04-6.94-1.06-6.66-1.47c0.28-0.41,6.38,0.92,6-0.6c-0.14-0.55-4.99-1.01-7.72-1.18
							l-0.01,0.04c-0.45-0.02-1.04-0.02-1.18-0.39c-0.06-0.15-0.03-0.32,0.04-0.47c0.17-0.34,0.53-0.56,0.78-0.84
							c0.25-0.29,0.28-0.75,0.12-1.07c-0.1-0.2-0.29-0.36-0.52-0.38c-0.39-0.02-0.68,0.33-0.99,0.57c-0.44,0.35-1.01,0.51-1.54,0.69
							c-0.68,0.24-1.46,0.73-1.95,1.26c-0.25,0.27-0.31,0.51-0.65,0.72c-0.33,0.2-0.73,0.29-1.08,0.47
							c-1.3,0.67-1.94,2.19-0.89,3.31c0.64,0.69,1.61,0.98,2.53,1.26c1.73,0.54,3.02,1.41,4.91,1.57c0.98,0.08,1.97-0.03,2.95-0.15
							c0.48-0.06,0.97-0.12,1.45-0.21c0.17-0.03,0.34-0.07,0.48-0.17c0.14-0.1,0.22-0.29,0.16-0.44c-0.09-0.2-0.36-0.23-0.59-0.22
							c-1.09,0.02-2.19,0-3.27-0.07c-0.07,0-0.14-0.01-0.2-0.05c-0.37-0.25,0.56-0.4,0.66-0.41c0.32-0.01,0.64,0.03,0.96,0.03
							c0.85-0.02,1.71-0.03,2.56-0.05c0.4-0.01,0.8-0.02,1.2-0.04c0.35-0.02,0.9,0.05,1.18-0.17c0.16-0.13,0.24-0.37,0.16-0.55
							c-0.12-0.26-0.47-0.3-0.76-0.31c-1.45-0.05-2.9-0.1-4.36-0.15c-0.18-0.01-0.36-0.01-0.52-0.07c-0.11-0.03-0.39-0.16-0.39-0.3
							c0-0.15,0.22-0.16,0.33-0.17c0.26-0.01,0.52-0.01,0.78,0c1.27,0.03,2.51,0.25,3.79,0.29c0.52,0.01,1.06,0.02,1.58-0.04
							C78.88,123.08,79.35,123.05,79.41,122.83z"/>
					</g>
				</g>
			</g>
		</g>
		<g>
			<path class="st5" d="M49.15,94.52c-0.01,0-0.02,0-0.03,0c-0.08-0.01-0.13-0.09-0.12-0.17c0.71-4.12,1.62-8.25,2.7-12.28
				c0.02-0.08,0.11-0.12,0.18-0.1c0.08,0.02,0.12,0.1,0.1,0.18c-1.08,4.03-1.98,8.15-2.7,12.26C49.28,94.47,49.22,94.52,49.15,94.52
				z"/>
		</g>
		<g>
			<path class="st5" d="M65.28,65.26c-0.06,0-0.12-0.04-0.14-0.1l-1.63-4.7c-0.03-0.08,0.01-0.16,0.09-0.19
				c0.08-0.02,0.16,0.01,0.19,0.09l1.63,4.7c0.03,0.08-0.01,0.16-0.09,0.19C65.32,65.25,65.3,65.26,65.28,65.26z"/>
		</g>
	</g>
</g>
</svg>
