<?xml version="1.0" encoding="utf-8"?>
<!-- Generator: Adobe Illustrator 24.0.1, SVG Export Plug-In . SVG Version: 6.00 Build 0)  -->
<svg version="1.1" id="Layer_1" xmlns="http://www.w3.org/2000/svg" xmlns:xlink="http://www.w3.org/1999/xlink" x="0px" y="0px"
	 viewBox="0 0 1350 440" style="enable-background:new 0 0 1350 440;" xml:space="preserve">
<style type="text/css">
	.st0{clip-path:url(#SVGID_2_);fill:#FFD41C;}
	.st1{clip-path:url(#SVGID_4_);}
	.st2{clip-path:url(#SVGID_6_);}
	.st3{clip-path:url(#SVGID_8_);}
	.st4{clip-path:url(#SVGID_10_);}
	.st5{clip-path:url(#SVGID_12_);fill:#FFFFFF;}
	.st6{clip-path:url(#SVGID_14_);}
	.st7{font-family:'RoxboroughCF-Bold';}
	.st8{font-size:268.727px;}
</style>
<g>
	<defs>
		<rect id="SVGID_1_" x="2" y="-9" width="1361" height="455.64"/>
	</defs>
	<clipPath id="SVGID_2_">
		<use xlink:href="#SVGID_1_"  style="overflow:visible;"/>
	</clipPath>
	<rect x="2" y="-9" class="st0" width="1361" height="455.64"/>
</g>
<g>
	<defs>
		<rect id="SVGID_3_" x="-44.8" y="-178.03" width="1440" height="817.5"/>
	</defs>
	<clipPath id="SVGID_4_">
		<use xlink:href="#SVGID_3_"  style="overflow:visible;"/>
	</clipPath>
	<g class="st1">
		<defs>
			<rect id="SVGID_5_" x="-44.8" y="-178.03" width="1440" height="810"/>
		</defs>
		<clipPath id="SVGID_6_">
			<use xlink:href="#SVGID_5_"  style="overflow:visible;"/>
		</clipPath>
		<g class="st2">
			<defs>
				<rect id="SVGID_7_" x="-44.8" y="-178.03" width="1440" height="810"/>
			</defs>
			<clipPath id="SVGID_8_">
				<use xlink:href="#SVGID_7_"  style="overflow:visible;"/>
			</clipPath>
			<g class="st3">
				<defs>
					<rect id="SVGID_9_" x="169.59" y="24.75" width="404.44" height="404.44"/>
				</defs>
				<clipPath id="SVGID_10_">
					<use xlink:href="#SVGID_9_"  style="overflow:visible;"/>
				</clipPath>
				<g class="st4">
					<defs>
						<circle id="SVGID_11_" cx="371.81" cy="226.97" r="202.22"/>
					</defs>
					<clipPath id="SVGID_12_">
						<use xlink:href="#SVGID_11_"  style="overflow:visible;"/>
					</clipPath>
					<rect x="169.59" y="24.75" class="st5" width="404.44" height="404.44"/>
				</g>
			</g>
		</g>
	</g>
</g>
<g>
	<defs>
		<rect id="SVGID_13_" x="-44.8" y="-178.03" width="1440" height="810"/>
	</defs>
	<clipPath id="SVGID_14_">
		<use xlink:href="#SVGID_13_"  style="overflow:visible;"/>
	</clipPath>
	<g class="st6">
		<text transform="matrix(1 0 0 1 36.2001 301.0526)" class="st7 st8">S</text>
	</g>
	<g class="st6">
		<text transform="matrix(1 0 0 1 204.955 301.0526)" class="st7 st8">ê</text>
	</g>
	<g class="st6">
		<text transform="matrix(1 0 0 1 352.2118 301.0526)" class="st7 st8">n</text>
	</g>
	<g class="st6">
		<text transform="matrix(1 0 0 1 521.5038 301.0526)" class="st7 st8">i</text>
	</g>
	<g class="st6">
		<text transform="matrix(1 0 0 1 593.2528 301.0526)" class="st7 st8">o</text>
	</g>
	<g class="st6">
		<text transform="matrix(1 0 0 1 757.7074 301.0526)" class="st7 st8">r</text>
	</g>
	<g class="st6">
		<text transform="matrix(1 0 0 1 872.9867 301.0526)" class="st7 st8"> </text>
	</g>
	<g class="st6">
		<text transform="matrix(1 0 0 1 926.7308 301.0526)" class="st7 st8">F</text>
	</g>
	<g class="st6">
		<text transform="matrix(1 0 0 1 1095.4847 301.0526)" class="st7 st8">I</text>
	</g>
	<g class="st6">
		<text transform="matrix(1 0 0 1 1181.2074 301.0526)" class="st7 st8">T</text>
	</g>
</g>
</svg>
