<?xml version="1.0" encoding="utf-8"?>
<!-- Generator: Adobe Illustrator 24.0.1, SVG Export Plug-In . SVG Version: 6.00 Build 0)  -->
<svg version="1.1" id="Layer_1" xmlns="http://www.w3.org/2000/svg" xmlns:xlink="http://www.w3.org/1999/xlink" x="0px" y="0px"
	 viewBox="0 0 60 60" style="enable-background:new 0 0 60 60;" xml:space="preserve">
<style type="text/css">
	.st0{fill:#FFFFFF;stroke:#045500;stroke-miterlimit:10;}
</style>
<g>
	<path class="st0" d="M29.53,44.71c-0.13,0-0.22,0-0.3,0c-2.65,0-5.29,0-7.94,0c-0.2,0-0.32-0.06-0.44-0.23
		c-2.27-3.4-4.54-6.79-6.81-10.19c-0.1-0.15-0.21-0.22-0.39-0.21c-1.74,0.01-3.47,0.01-5.21,0c-0.22,0-0.27,0.06-0.27,0.27
		c0.01,3.35,0,6.7,0.01,10.05c0,0.25-0.06,0.31-0.31,0.31c-2.24-0.01-4.48-0.01-6.72,0c-0.23,0-0.29-0.05-0.29-0.28
		c0.01-10.87,0.01-21.73,0-32.6c0-0.23,0.05-0.3,0.3-0.3c5.07,0.01,10.14,0,15.21,0.01c1.93,0.01,3.83,0.27,5.63,0.99
		c3.28,1.31,5.45,3.61,6.25,7.11c0.33,1.45,0.37,2.92,0.22,4.4c-0.12,1.23-0.4,2.41-0.93,3.53c-0.64,1.36-1.6,2.47-2.75,3.41
		c-0.93,0.76-1.97,1.36-3.1,1.78c-0.22,0.08-0.23,0.14-0.1,0.33c2.6,3.8,5.2,7.6,7.8,11.4C29.42,44.55,29.46,44.61,29.53,44.71z
		 M8.17,22.88c0,1.49,0.01,2.98-0.01,4.48c0,0.23,0.06,0.29,0.29,0.29c2.33-0.01,4.67-0.01,7-0.01c0.84,0,1.66-0.06,2.47-0.31
		c1.44-0.45,2.5-1.33,2.99-2.79c0.33-0.98,0.31-1.98,0.1-2.98c-0.26-1.19-0.93-2.06-2-2.64c-0.95-0.51-1.98-0.75-3.05-0.76
		c-2.52-0.03-5.03-0.01-7.55-0.03c-0.21,0-0.24,0.08-0.24,0.26C8.17,19.88,8.17,21.38,8.17,22.88z"/>
	<path class="st0" d="M49.11,17.9c0,0.11,0,0.21,0,0.3c0,2.19,0,4.37-0.01,6.56c0,0.25,0.07,0.35,0.31,0.42
		c1.97,0.54,3.88,1.24,5.64,2.3c1.09,0.65,2.05,1.45,2.8,2.49c0.75,1.04,1.19,2.21,1.39,3.47c0.19,1.23,0.21,2.47-0.03,3.7
		c-0.3,1.57-1.02,2.92-2.11,4.08c-1.66,1.77-3.77,2.7-6.1,3.18c-0.47,0.1-0.94,0.17-1.41,0.22c-0.19,0.02-0.25,0.1-0.25,0.29
		c0.01,1.39,0,2.78,0.01,4.17c0,0.22-0.06,0.27-0.27,0.27c-1.47-0.01-2.93-0.01-4.4,0c-0.23,0-0.27-0.07-0.27-0.28
		c0.01-1.41,0-2.83,0.01-4.24c0-0.21-0.06-0.28-0.26-0.3c-2.43-0.32-4.76-1.01-6.98-2.06c-1.34-0.63-2.6-1.39-3.79-2.27
		c-0.14-0.1-0.15-0.16-0.05-0.3c1.16-1.68,2.31-3.36,3.46-5.04c0.1-0.15,0.16-0.17,0.31-0.05c1.37,1.02,2.8,1.96,4.36,2.68
		c0.96,0.44,1.96,0.74,2.98,0.98c0.15,0.03,0.19,0,0.19-0.16c0-2.39,0-4.77,0-7.16c0-0.18-0.1-0.21-0.23-0.24
		c-1.56-0.44-3.1-0.96-4.57-1.65c-1.51-0.71-2.85-1.64-3.84-3.02c-0.75-1.05-1.23-2.21-1.41-3.49c-0.22-1.53-0.22-3.07,0.24-4.56
		c0.56-1.82,1.63-3.28,3.17-4.39c1.8-1.29,3.84-1.93,6.02-2.2c0.39-0.05,0.39-0.04,0.39-0.44c0-0.71,0.01-1.42,0-2.14
		c0-0.17,0.03-0.24,0.22-0.24c1.49,0.01,2.99,0.01,4.48,0c0.18,0,0.24,0.05,0.24,0.23c-0.01,0.78,0.01,1.56-0.01,2.34
		c-0.01,0.25,0.06,0.36,0.32,0.39c1.45,0.18,2.85,0.56,4.22,1.1c1.47,0.57,2.84,1.33,4.15,2.2c0.17,0.11,0.07,0.19,0.02,0.29
		c-0.82,1.43-1.64,2.86-2.46,4.29c-0.16,0.27-0.33,0.53-0.46,0.81c-0.11,0.24-0.21,0.21-0.4,0.09c-1.25-0.82-2.56-1.53-3.95-2.08
		C50.25,18.22,49.7,18.04,49.11,17.9z M49.11,32.1c0,0.21,0,0.38,0,0.55c0,1.94,0,3.89,0,5.83c0,0.21,0.05,0.26,0.26,0.22
		c0.41-0.09,0.81-0.18,1.2-0.34c2.08-0.83,2.61-3.35,1.01-4.91C50.9,32.78,50.02,32.45,49.11,32.1z M44.65,20.68c0-1,0-2,0-2.99
		c0-0.19-0.05-0.25-0.24-0.2c-0.28,0.07-0.58,0.11-0.86,0.2c-0.55,0.16-1.05,0.41-1.45,0.83c-1.12,1.19-0.92,3.3,0.4,4.3
		c0.58,0.44,1.24,0.71,1.91,0.99c0.19,0.08,0.25,0.06,0.24-0.16C44.64,22.66,44.65,21.67,44.65,20.68z"/>
</g>
</svg>
