<?xml version="1.0" encoding="utf-8"?>
<!-- Generator: Adobe Illustrator 24.0.1, SVG Export Plug-In . SVG Version: 6.00 Build 0)  -->
<!DOCTYPE svg PUBLIC "-//W3C//DTD SVG 1.1//EN" "http://www.w3.org/Graphics/SVG/1.1/DTD/svg11.dtd" [
	<!ENTITY ns_extend "http://ns.adobe.com/Extensibility/1.0/">
	<!ENTITY ns_ai "http://ns.adobe.com/AdobeIllustrator/10.0/">
	<!ENTITY ns_graphs "http://ns.adobe.com/Graphs/1.0/">
	<!ENTITY ns_vars "http://ns.adobe.com/Variables/1.0/">
	<!ENTITY ns_imrep "http://ns.adobe.com/ImageReplacement/1.0/">
	<!ENTITY ns_sfw "http://ns.adobe.com/SaveForWeb/1.0/">
	<!ENTITY ns_custom "http://ns.adobe.com/GenericCustomNamespace/1.0/">
	<!ENTITY ns_adobe_xpath "http://ns.adobe.com/XPath/1.0/">
]>
<svg version="1.1" id="Layer_1" xmlns:x="&ns_extend;" xmlns:i="&ns_ai;" xmlns:graph="&ns_graphs;"
	 xmlns="http://www.w3.org/2000/svg" xmlns:xlink="http://www.w3.org/1999/xlink" x="0px" y="0px" viewBox="0 0 1440 810"
	 style="enable-background:new 0 0 1440 810;" xml:space="preserve">
<metadata>
	<sfw  xmlns="&ns_sfw;">
		<slices></slices>
		<sliceSourceBounds  bottomLeftOrigin="true" height="810" width="1014.7" x="230.2" y="0"></sliceSourceBounds>
	</sfw>
</metadata>
<g>
	<defs>
		<rect id="SVGID_1_" x="230.2" width="1014.7" height="810"/>
	</defs>
	<clipPath id="SVGID_2_">
		<use xlink:href="#SVGID_1_"  style="overflow:visible;"/>
	</clipPath>
	<path style="clip-path:url(#SVGID_2_);fill:#5BB947;" d="M945.3,167.2c-73.8,7.5-106.9,53.1-106.9,96.1c0,22.7,9.9,44.2,27,59
		c18.9,16.6,46.2,27.2,79.9,30.2L945.3,167.2L945.3,167.2z M956.7,364.5l-6.1-0.4c-38.9-2.4-71-14-92.7-33.5
		c-19.5-17-30.8-41.6-30.8-67.3c0-49.3,38.1-101.6,123.5-107.9l6.1-0.4L956.7,364.5z M1031.9,459.9V645
		c73.8-7.5,106.9-53.1,106.9-96.1c0-22.7-9.9-44.2-27-59C1093.1,473.2,1065.6,462.9,1031.9,459.9z M1020.5,657.2V447.5l6.1,0.4
		c38.9,2.4,71,14,92.7,33.5c19.5,17,30.8,41.6,30.8,67.5c0,49.3-38.1,101.6-123.5,107.9L1020.5,657.2z M956.7,797.9h64.1v-58
		l5.5-0.2c74.4-3.9,121.3-33.5,147.4-57.6c37.5-34.3,59-82.5,59.4-133.2c0.2-49.5-21.3-96.7-58.4-129.4
		c-36.9-32.9-88.2-51.7-148.4-54.6l-5.5-0.2V157.9l6.5,1c44.4,6.5,77.5,20.7,98.4,42.2c13.4,13.4,21.9,30.8,24.3,49.5l83.1,5.5
		c-1-41.2-17.2-80.3-45.6-110.1c-36.3-38.7-90.7-62.7-161.8-70.8l-5.1-0.6V14.3h-64.1v58l-5.3,0.2c-74.4,3.9-121.3,33.5-147.6,57.6
		c-37.5,34.3-59,82.5-59.4,133.2c-0.2,49.5,21.3,96.7,58.6,129.4c36.9,32.9,88.2,51.7,148.4,54.6l5.5,0.2v206.9l-6.5-1
		c-44.4-6.5-77.5-20.7-98.4-42.2c-13.4-13.4-21.9-30.8-24.3-49.5l-83.1-5.5c1,41.2,17.2,80.3,45.6,110.1
		c36.3,38.7,90.7,62.7,161.6,70.8l5.1,0.6V797.9z M1031.9,809.3h-86.6v-61.7c-71.2-8.9-126.3-33.9-163.7-73.6
		c-32-33.5-49.3-78.1-48.5-124.3l0.4-5.7l99.6,6.5l-0.4,4.7h5.7c0.8,18,8.5,35.1,21.5,47.7c18,18.7,46.8,31.2,85.4,37.7V457.8
		c-60.4-3.9-112.1-23.3-150.1-57c-39.7-34.7-62.5-85-62.3-137.7c0.4-53.9,23.3-105,63.1-141.6c27-24.9,74.6-55.4,149.3-60.2V3.2
		h86.6v61.7c71.2,8.9,126.3,33.9,163.7,73.6c32,33.5,49.5,78.1,48.5,124.3l-0.4,5.7l-99.6-6.7l0.2-4.7h-5.5
		c-0.8-18-8.5-35.1-21.5-47.7c-18-18.7-46.8-31.2-85.4-37.7v182.5c60.4,3.9,112.1,23.3,150.1,57c39.7,34.7,62.5,85,62.3,137.7
		c-0.4,53.9-23.3,105-63.1,141.6c-27,24.9-74.6,55.4-149.3,60.2V809.3z"/>
	<path style="clip-path:url(#SVGID_2_);fill:#5BB947;" d="M335.7,106.2v238.9c202-2,265.1-20.7,265.1-127.4
		c0-72.8-118.2-111.7-203.6-111.7h-61.4V106.2z M324.3,356.6V95h72.8c90,0,214.8,42.8,214.8,122.9c0,123.3-86,136.9-282.1,138.7
		H324.3z M624.9,797.9h82.7c-2.8-73.8-60.2-183.7-117-261.6c-25.8-35.7-55-68.5-87.2-98.6l-8.5-7.7l11.4-2
		c18.9-3.2,37.3-7.7,55.4-13.8c88.4-30.4,133-96.5,133-196.5c0-64.9-38.1-121.5-107.1-159.4C534,28.9,464.5,11.9,396.9,11.9H241.6
		v786h82.7V439.6h13.2v0.4c52.9,3.9,122.1,57.4,186.4,145.4C584.5,667.9,621.6,755.9,624.9,797.9z M719.2,809.3H613.7v-5.7
		c0-37.5-37.1-127-99-211.7c-62.9-86.2-129.4-138.5-179.1-140.9v358.3H230.2V0.7h167.1c69.4,0,140.9,17.4,196.1,47.7
		c72.8,40.2,113,100.2,113,169.3c0,105.5-47.3,175-140.7,207.1c-15,5.1-30.4,9.1-46,12.2c29.4,28.4,56.4,59.4,80.5,92.7
		c59.4,81.3,119.2,197.5,119.2,274L719.2,809.3z"/>
</g>
</svg>
